<?xml version="1.0" encoding="UTF-8" standalone="no"?>
<!DOCTYPE svg PUBLIC "-//W3C//DTD SVG 1.1//EN"
 "http://www.w3.org/Graphics/SVG/1.1/DTD/svg11.dtd">
<!-- Generated by graphviz version 2.40.1 (20161225.0304)
 -->
<!-- Title: G Pages: 1 -->
<svg width="6405pt" height="476pt"
 viewBox="0.00 0.00 6404.84 476.00" xmlns="http://www.w3.org/2000/svg" xmlns:xlink="http://www.w3.org/1999/xlink">
<g id="graph0" class="graph" transform="scale(1 1) rotate(0) translate(4 472)">
<title>G</title>
<polygon fill="#ffffff" stroke="transparent" points="-4,4 -4,-472 6400.8449,-472 6400.8449,4 -4,4"/>
<!-- node0 -->
<g id="node1" class="node">
<title>node0</title>
<ellipse fill="none" stroke="#000000" cx="3547" cy="-234" rx="89.8845" ry="18"/>
<text text-anchor="middle" x="3547" y="-230.3" font-family="Times,serif" font-size="14.00" fill="#000000">ball_defaultobserver.h</text>
</g>
<!-- node1 -->
<g id="node2" class="node">
<title>node1</title>
<ellipse fill="none" stroke="#000000" cx="1250" cy="-306" rx="72.2875" ry="18"/>
<text text-anchor="middle" x="1250" y="-302.3" font-family="Times,serif" font-size="14.00" fill="#000000">ipcu_algoutil.cpp</text>
</g>
<!-- node58 -->
<g id="node59" class="node">
<title>node58</title>
<ellipse fill="none" stroke="#000000" cx="1150" cy="-234" rx="63.8893" ry="18"/>
<text text-anchor="middle" x="1150" y="-230.3" font-family="Times,serif" font-size="14.00" fill="#000000">ipcu_algoutil.h</text>
</g>
<!-- node1&#45;&gt;node58 -->
<g id="edge1" class="edge">
<title>node1&#45;&gt;node58</title>
<path fill="none" stroke="#000000" d="M1226.3014,-288.937C1212.9759,-279.3426 1196.1661,-267.2396 1181.7181,-256.8371"/>
<polygon fill="#000000" stroke="#000000" points="1183.6889,-253.9432 1173.5285,-250.9405 1179.5988,-259.624 1183.6889,-253.9432"/>
</g>
<!-- node2 -->
<g id="node3" class="node">
<title>node2</title>
<ellipse fill="none" stroke="#000000" cx="2732" cy="-162" rx="52.7911" ry="18"/>
<text text-anchor="middle" x="2732" y="-158.3" font-family="Times,serif" font-size="14.00" fill="#000000">bsl_limits.h</text>
</g>
<!-- node3 -->
<g id="node4" class="node">
<title>node3</title>
<ellipse fill="none" stroke="#000000" cx="5447" cy="-378" rx="74.9875" ry="18"/>
<text text-anchor="middle" x="5447" y="-374.3" font-family="Times,serif" font-size="14.00" fill="#000000">sendorreceive.cpp</text>
</g>
<!-- node14 -->
<g id="node15" class="node">
<title>node14</title>
<ellipse fill="none" stroke="#000000" cx="5932" cy="-234" rx="72.5877" ry="18"/>
<text text-anchor="middle" x="5932" y="-230.3" font-family="Times,serif" font-size="14.00" fill="#000000">ipcmq_receiver.h</text>
</g>
<!-- node3&#45;&gt;node14 -->
<g id="edge3" class="edge">
<title>node3&#45;&gt;node14</title>
<path fill="none" stroke="#000000" d="M5500.873,-365.4972C5510.5387,-363.4882 5520.5438,-361.56 5530,-360 5669.4678,-336.992 5719.3893,-386.8519 5846,-324 5874.9231,-309.642 5899.3799,-281.386 5914.7313,-260.346"/>
<polygon fill="#000000" stroke="#000000" points="5917.6344,-262.3026 5920.5459,-252.1156 5911.9172,-258.2635 5917.6344,-262.3026"/>
</g>
<!-- node15 -->
<g id="node16" class="node">
<title>node15</title>
<ellipse fill="none" stroke="#000000" cx="5526" cy="-306" rx="88.2844" ry="18"/>
<text text-anchor="middle" x="5526" y="-302.3" font-family="Times,serif" font-size="14.00" fill="#000000">ipcmq_queuesender.h</text>
</g>
<!-- node3&#45;&gt;node15 -->
<g id="edge10" class="edge">
<title>node3&#45;&gt;node15</title>
<path fill="none" stroke="#000000" d="M5466.1237,-360.5708C5475.9716,-351.5955 5488.1463,-340.4996 5498.9406,-330.6617"/>
<polygon fill="#000000" stroke="#000000" points="5501.4703,-333.0918 5506.5036,-323.7689 5496.755,-327.9181 5501.4703,-333.0918"/>
</g>
<!-- node19 -->
<g id="node20" class="node">
<title>node19</title>
<ellipse fill="none" stroke="#000000" cx="6025" cy="-162" rx="68.4888" ry="18"/>
<text text-anchor="middle" x="6025" y="-158.3" font-family="Times,serif" font-size="14.00" fill="#000000">ipcmq_format.h</text>
</g>
<!-- node3&#45;&gt;node19 -->
<g id="edge2" class="edge">
<title>node3&#45;&gt;node19</title>
<path fill="none" stroke="#000000" d="M5499.9144,-365.2356C5509.8616,-363.2035 5520.2116,-361.3345 5530,-360 5668.0637,-341.1767 6024.045,-368.7637 6156,-324 6209.9326,-305.7042 6235.3447,-302.3284 6262,-252 6269.4886,-237.8607 6271.9951,-228.4939 6262,-216 6216.4667,-159.0833 6173.0439,-196.296 6102,-180 6096.9445,-178.8404 6091.7041,-177.631 6086.4435,-176.4118"/>
<polygon fill="#000000" stroke="#000000" points="6086.8781,-172.9196 6076.3454,-174.0655 6085.2938,-179.7379 6086.8781,-172.9196"/>
</g>
<!-- node20 -->
<g id="node21" class="node">
<title>node20</title>
<ellipse fill="none" stroke="#000000" cx="4370" cy="-18" rx="63.0888" ry="18"/>
<text text-anchor="middle" x="4370" y="-14.3" font-family="Times,serif" font-size="14.00" fill="#000000">bsl_iostream.h</text>
</g>
<!-- node3&#45;&gt;node20 -->
<g id="edge6" class="edge">
<title>node3&#45;&gt;node20</title>
<path fill="none" stroke="#000000" d="M5372.4091,-376.6394C5259.1133,-373.3535 5050.1461,-362.1501 4987,-324 4937.197,-293.9112 4959.5603,-250.8972 4913,-216 4871.8378,-185.1487 4851.5445,-197.0164 4803,-180 4661.7205,-130.477 4496.4508,-67.1195 4417.1496,-36.3771"/>
<polygon fill="#000000" stroke="#000000" points="4418.0438,-32.9699 4407.4549,-32.6152 4415.5115,-39.4958 4418.0438,-32.9699"/>
</g>
<!-- node32 -->
<g id="node33" class="node">
<title>node32</title>
<ellipse fill="none" stroke="#000000" cx="5774" cy="-234" rx="67.6881" ry="18"/>
<text text-anchor="middle" x="5774" y="-230.3" font-family="Times,serif" font-size="14.00" fill="#000000">ipcmq_sender.h</text>
</g>
<!-- node3&#45;&gt;node32 -->
<g id="edge4" class="edge">
<title>node3&#45;&gt;node32</title>
<path fill="none" stroke="#000000" d="M5501.3277,-365.4547C5510.8538,-363.4736 5520.6942,-361.5657 5530,-360 5595.9967,-348.8958 5784.5958,-374.0712 5829,-324 5846.9627,-303.7449 5825.8342,-276.8679 5804.775,-257.7731"/>
<polygon fill="#000000" stroke="#000000" points="5806.9419,-255.0196 5797.092,-251.117 5802.3583,-260.3103 5806.9419,-255.0196"/>
</g>
<!-- node54 -->
<g id="node55" class="node">
<title>node54</title>
<ellipse fill="none" stroke="#000000" cx="1737" cy="-18" rx="55.7903" ry="18"/>
<text text-anchor="middle" x="1737" y="-14.3" font-family="Times,serif" font-size="14.00" fill="#000000">bsls_assert.h</text>
</g>
<!-- node3&#45;&gt;node54 -->
<g id="edge7" class="edge">
<title>node3&#45;&gt;node54</title>
<path fill="none" stroke="#000000" d="M5373.0131,-375.3489C5124.8522,-366.3458 4336.2774,-336.7948 4313,-324 4261.5645,-295.7277 4287.8954,-245.2335 4237,-216 4155.4344,-169.1501 2643.7934,-79.1173 2550,-72 2272.0325,-50.907 1940.2476,-30.2889 1802.223,-21.914"/>
<polygon fill="#000000" stroke="#000000" points="1802.4221,-18.4197 1792.2287,-21.3085 1801.9987,-25.4069 1802.4221,-18.4197"/>
</g>
<!-- node60 -->
<g id="node61" class="node">
<title>node60</title>
<ellipse fill="none" stroke="#000000" cx="5450" cy="-18" rx="51.9908" ry="18"/>
<text text-anchor="middle" x="5450" y="-14.3" font-family="Times,serif" font-size="14.00" fill="#000000">bsl_string.h</text>
</g>
<!-- node3&#45;&gt;node60 -->
<g id="edge9" class="edge">
<title>node3&#45;&gt;node60</title>
<path fill="none" stroke="#000000" d="M5499.942,-365.1344C5548.9677,-352.6886 5615.4243,-334.2486 5623,-324 5695.8814,-225.404 5547.8181,-93.0973 5480.7144,-40.7171"/>
<polygon fill="#000000" stroke="#000000" points="5482.63,-37.7746 5472.5723,-34.4438 5478.3576,-43.3197 5482.63,-37.7746"/>
</g>
<!-- node69 -->
<g id="node70" class="node">
<title>node69</title>
<ellipse fill="none" stroke="#000000" cx="3943" cy="-234" rx="78.7863" ry="18"/>
<text text-anchor="middle" x="3943" y="-230.3" font-family="Times,serif" font-size="14.00" fill="#000000">bsls_timeinterval.h</text>
</g>
<!-- node3&#45;&gt;node69 -->
<g id="edge5" class="edge">
<title>node3&#45;&gt;node69</title>
<path fill="none" stroke="#000000" d="M5372.7131,-375.7475C5127.4703,-368.1622 4352.9498,-342.9626 4242,-324 4187.5337,-314.6911 4175.9073,-303.9389 4123,-288 4082.167,-275.6987 4036.1055,-261.8813 4000.8,-251.303"/>
<polygon fill="#000000" stroke="#000000" points="4001.7243,-247.9263 3991.1405,-248.4093 3999.7154,-254.6319 4001.7243,-247.9263"/>
</g>
<!-- node75 -->
<g id="node76" class="node">
<title>node75</title>
<ellipse fill="none" stroke="#000000" cx="5326" cy="-306" rx="93.6835" ry="18"/>
<text text-anchor="middle" x="5326" y="-302.3" font-family="Times,serif" font-size="14.00" fill="#000000">ipcmq_queuereceiver.h</text>
</g>
<!-- node3&#45;&gt;node75 -->
<g id="edge8" class="edge">
<title>node3&#45;&gt;node75</title>
<path fill="none" stroke="#000000" d="M5418.936,-361.3008C5402.6465,-351.6079 5381.903,-339.2646 5364.1479,-328.6996"/>
<polygon fill="#000000" stroke="#000000" points="5365.5585,-325.4662 5355.175,-323.3603 5361.9789,-331.4818 5365.5585,-325.4662"/>
</g>
<!-- node4 -->
<g id="node5" class="node">
<title>node4</title>
<ellipse fill="none" stroke="#000000" cx="2314" cy="-234" rx="85.2851" ry="18"/>
<text text-anchor="middle" x="2314" y="-230.3" font-family="Times,serif" font-size="14.00" fill="#000000">bdls_filesystemutil.h</text>
</g>
<!-- node5 -->
<g id="node6" class="node">
<title>node5</title>
<ellipse fill="none" stroke="#000000" cx="5605" cy="-378" rx="65.7887" ry="18"/>
<text text-anchor="middle" x="5605" y="-374.3" font-family="Times,serif" font-size="14.00" fill="#000000">ipcmq_queue.h</text>
</g>
<!-- node5&#45;&gt;node15 -->
<g id="edge15" class="edge">
<title>node5&#45;&gt;node15</title>
<path fill="none" stroke="#000000" d="M5585.8763,-360.5708C5576.0284,-351.5955 5563.8537,-340.4996 5553.0594,-330.6617"/>
<polygon fill="#000000" stroke="#000000" points="5555.245,-327.9181 5545.4964,-323.7689 5550.5297,-333.0918 5555.245,-327.9181"/>
</g>
<!-- node18 -->
<g id="node19" class="node">
<title>node18</title>
<ellipse fill="none" stroke="#000000" cx="4820" cy="-234" rx="84.485" ry="18"/>
<text text-anchor="middle" x="4820" y="-230.3" font-family="Times,serif" font-size="14.00" fill="#000000">ipcmq_posixqueue.h</text>
</g>
<!-- node5&#45;&gt;node18 -->
<g id="edge14" class="edge">
<title>node5&#45;&gt;node18</title>
<path fill="none" stroke="#000000" d="M5558.2678,-365.3429C5549.2735,-363.274 5539.8867,-361.3644 5531,-360 5291.4998,-323.2285 5219.8574,-391.0069 4987,-324 4960.5906,-316.4004 4897.648,-280.4646 4857.0244,-256.3649"/>
<polygon fill="#000000" stroke="#000000" points="4858.5981,-253.2284 4848.2157,-251.1174 4855.0155,-259.2422 4858.5981,-253.2284"/>
</g>
<!-- node5&#45;&gt;node19 -->
<g id="edge11" class="edge">
<title>node5&#45;&gt;node19</title>
<path fill="none" stroke="#000000" d="M5670.0544,-375.278C5837.8946,-367.9421 6273.9415,-346.771 6295,-324 6327.5902,-288.7597 6325.6719,-252.922 6295,-216 6267.1214,-182.4405 6144.697,-188.9679 6102,-180 6096.6259,-178.8712 6091.0513,-177.6558 6085.4701,-176.4082"/>
<polygon fill="#000000" stroke="#000000" points="6085.9849,-172.9362 6075.4586,-174.1399 6084.438,-179.7632 6085.9849,-172.9362"/>
</g>
<!-- node5&#45;&gt;node60 -->
<g id="edge13" class="edge">
<title>node5&#45;&gt;node60</title>
<path fill="none" stroke="#000000" d="M5664.309,-370.1453C5689.4846,-366.8846 5719.1606,-363.1379 5746,-360 5821.2444,-351.2029 6034.3391,-380.3257 6085,-324 6095.6997,-312.1039 6091.0712,-302.8034 6085,-288 6067.9468,-246.4194 6050.3665,-242.4052 6014,-216 5999.5247,-205.4897 5743.0096,-77.5383 5726,-72 5633.8746,-42.0039 5605.4129,-57.75 5511,-36 5506.8843,-35.0519 5502.6368,-33.9852 5498.3886,-32.8567"/>
<polygon fill="#000000" stroke="#000000" points="5499.1075,-29.4243 5488.5367,-30.1375 5497.2451,-36.172 5499.1075,-29.4243"/>
</g>
<!-- node5&#45;&gt;node75 -->
<g id="edge12" class="edge">
<title>node5&#45;&gt;node75</title>
<path fill="none" stroke="#000000" d="M5557.0382,-365.6228C5511.4663,-353.8623 5442.5597,-336.0799 5391.8534,-322.9944"/>
<polygon fill="#000000" stroke="#000000" points="5392.5245,-319.553 5381.9671,-320.4431 5390.7753,-326.331 5392.5245,-319.553"/>
</g>
<!-- node6 -->
<g id="node7" class="node">
<title>node6</title>
<ellipse fill="none" stroke="#000000" cx="217" cy="-234" rx="113.18" ry="18"/>
<text text-anchor="middle" x="217" y="-230.3" font-family="Times,serif" font-size="14.00" fill="#000000">ipcmq_posixqueueerrors.cpp</text>
</g>
<!-- node25 -->
<g id="node26" class="node">
<title>node25</title>
<ellipse fill="none" stroke="#000000" cx="1528" cy="-162" rx="104.7816" ry="18"/>
<text text-anchor="middle" x="1528" y="-158.3" font-family="Times,serif" font-size="14.00" fill="#000000">ipcmq_posixqueueerrors.h</text>
</g>
<!-- node6&#45;&gt;node25 -->
<g id="edge16" class="edge">
<title>node6&#45;&gt;node25</title>
<path fill="none" stroke="#000000" d="M296.2613,-221.0737C310.4607,-219.1099 325.1451,-217.3064 339,-216 722.5201,-179.8366 820.2337,-198.7176 1205,-180 1276.206,-176.5361 1356.2094,-172.0819 1418.7799,-168.4711"/>
<polygon fill="#000000" stroke="#000000" points="1419.282,-171.9479 1429.0632,-167.8762 1418.8777,-164.9596 1419.282,-171.9479"/>
</g>
<!-- node7 -->
<g id="node8" class="node">
<title>node7</title>
<ellipse fill="none" stroke="#000000" cx="1299" cy="-234" rx="67.6881" ry="18"/>
<text text-anchor="middle" x="1299" y="-230.3" font-family="Times,serif" font-size="14.00" fill="#000000">bdlb_arrayutil.h</text>
</g>
<!-- node8 -->
<g id="node9" class="node">
<title>node8</title>
<ellipse fill="none" stroke="#000000" cx="1513" cy="-234" rx="43.5923" ry="18"/>
<text text-anchor="middle" x="1513" y="-230.3" font-family="Times,serif" font-size="14.00" fill="#000000">sys/stat.h</text>
</g>
<!-- node9 -->
<g id="node10" class="node">
<title>node9</title>
<ellipse fill="none" stroke="#000000" cx="5418" cy="-234" rx="79.8859" ry="18"/>
<text text-anchor="middle" x="5418" y="-230.3" font-family="Times,serif" font-size="14.00" fill="#000000">ipcmq_formatutil.h</text>
</g>
<!-- node9&#45;&gt;node19 -->
<g id="edge17" class="edge">
<title>node9&#45;&gt;node19</title>
<path fill="none" stroke="#000000" d="M5488.8186,-225.5998C5605.0517,-211.8126 5835.0752,-184.5281 5952.4362,-170.6072"/>
<polygon fill="#000000" stroke="#000000" points="5952.8872,-174.0784 5962.4052,-169.4247 5952.0626,-167.1271 5952.8872,-174.0784"/>
</g>
<!-- node9&#45;&gt;node60 -->
<g id="edge18" class="edge">
<title>node9&#45;&gt;node60</title>
<path fill="none" stroke="#000000" d="M5420.6733,-215.9555C5426.2497,-178.3144 5439.1575,-91.1867 5445.8334,-46.1246"/>
<polygon fill="#000000" stroke="#000000" points="5449.3085,-46.5501 5447.3118,-36.1451 5442.3841,-45.5242 5449.3085,-46.5501"/>
</g>
<!-- node10 -->
<g id="node11" class="node">
<title>node10</title>
<ellipse fill="none" stroke="#000000" cx="4459" cy="-234" rx="61.1893" ry="18"/>
<text text-anchor="middle" x="4459" y="-230.3" font-family="Times,serif" font-size="14.00" fill="#000000">findmaxif.cpp</text>
</g>
<!-- node10&#45;&gt;node2 -->
<g id="edge20" class="edge">
<title>node10&#45;&gt;node2</title>
<path fill="none" stroke="#000000" d="M4400.6233,-228.5444C4355.881,-224.5383 4292.5873,-219.2491 4237,-216 3678.0918,-183.3313 3001.1892,-167.5327 2794.7417,-163.2391"/>
<polygon fill="#000000" stroke="#000000" points="2794.7614,-159.7388 2784.6912,-163.0315 2794.6167,-166.7374 2794.7614,-159.7388"/>
</g>
<!-- node16 -->
<g id="node17" class="node">
<title>node16</title>
<ellipse fill="none" stroke="#000000" cx="4507" cy="-162" rx="71.4873" ry="18"/>
<text text-anchor="middle" x="4507" y="-158.3" font-family="Times,serif" font-size="14.00" fill="#000000">ipcmq_algoutil.h</text>
</g>
<!-- node10&#45;&gt;node16 -->
<g id="edge21" class="edge">
<title>node10&#45;&gt;node16</title>
<path fill="none" stroke="#000000" d="M4470.8652,-216.2022C4476.4614,-207.8079 4483.2522,-197.6218 4489.4294,-188.3558"/>
<polygon fill="#000000" stroke="#000000" points="4492.4701,-190.1045 4495.105,-179.8425 4486.6457,-186.2216 4492.4701,-190.1045"/>
</g>
<!-- node10&#45;&gt;node20 -->
<g id="edge19" class="edge">
<title>node10&#45;&gt;node20</title>
<path fill="none" stroke="#000000" d="M4447.1172,-215.9931C4440.6494,-205.7184 4432.8067,-192.4426 4427,-180 4405.7243,-134.4106 4387.7316,-78.5381 4377.9374,-45.7451"/>
<polygon fill="#000000" stroke="#000000" points="4381.2354,-44.5543 4375.0518,-35.9512 4374.5208,-46.5328 4381.2354,-44.5543"/>
</g>
<!-- node11 -->
<g id="node12" class="node">
<title>node11</title>
<ellipse fill="none" stroke="#000000" cx="3969" cy="-18" rx="61.99" ry="18"/>
<text text-anchor="middle" x="3969" y="-14.3" font-family="Times,serif" font-size="14.00" fill="#000000">bsl_iomanip.h</text>
</g>
<!-- node12 -->
<g id="node13" class="node">
<title>node12</title>
<ellipse fill="none" stroke="#000000" cx="2473" cy="-234" rx="55.7903" ry="18"/>
<text text-anchor="middle" x="2473" y="-230.3" font-family="Times,serif" font-size="14.00" fill="#000000">bsl_cstring.h</text>
</g>
<!-- node13 -->
<g id="node14" class="node">
<title>node13</title>
<ellipse fill="none" stroke="#000000" cx="1150" cy="-162" rx="46.2923" ry="18"/>
<text text-anchor="middle" x="1150" y="-158.3" font-family="Times,serif" font-size="14.00" fill="#000000">ball_log.h</text>
</g>
<!-- node14&#45;&gt;node60 -->
<g id="edge22" class="edge">
<title>node14&#45;&gt;node60</title>
<path fill="none" stroke="#000000" d="M5896.0236,-218.1882C5874.5491,-208.2225 5847.0591,-194.5243 5824,-180 5757.8035,-138.3045 5756.0371,-104.7754 5685,-72 5613.2932,-38.9155 5587.6037,-55.1916 5511,-36 5506.9634,-34.9887 5502.7933,-33.8851 5498.6164,-32.7382"/>
<polygon fill="#000000" stroke="#000000" points="5499.4922,-29.3487 5488.9179,-30.0067 5497.5946,-36.0866 5499.4922,-29.3487"/>
</g>
<!-- node15&#45;&gt;node9 -->
<g id="edge26" class="edge">
<title>node15&#45;&gt;node9</title>
<path fill="none" stroke="#000000" d="M5500.1313,-288.7542C5485.7043,-279.1362 5467.5605,-267.0403 5451.9979,-256.6653"/>
<polygon fill="#000000" stroke="#000000" points="5453.9196,-253.7399 5443.6576,-251.1051 5450.0367,-259.5643 5453.9196,-253.7399"/>
</g>
<!-- node15&#45;&gt;node18 -->
<g id="edge29" class="edge">
<title>node15&#45;&gt;node18</title>
<path fill="none" stroke="#000000" d="M5462.7457,-293.356C5451.5342,-291.3741 5439.9463,-289.4915 5429,-288 5247.3128,-263.2436 5200.6401,-268.3006 5018,-252 4982.0151,-248.7883 4942.3568,-245.1939 4908.0445,-242.0666"/>
<polygon fill="#000000" stroke="#000000" points="4908.3248,-238.5778 4898.0482,-241.155 4907.689,-245.5488 4908.3248,-238.5778"/>
</g>
<!-- node15&#45;&gt;node19 -->
<g id="edge23" class="edge">
<title>node15&#45;&gt;node19</title>
<path fill="none" stroke="#000000" d="M5555.7222,-288.8686C5596.6767,-265.5246 5668.6144,-225.5273 5697,-216 5780.5243,-187.966 5881.0747,-174.164 5948.6414,-167.5893"/>
<polygon fill="#000000" stroke="#000000" points="5949.1524,-171.0568 5958.7795,-166.633 5948.4949,-164.0877 5949.1524,-171.0568"/>
</g>
<!-- node24 -->
<g id="node25" class="node">
<title>node24</title>
<ellipse fill="none" stroke="#000000" cx="5109" cy="-234" rx="81.7856" ry="18"/>
<text text-anchor="middle" x="5109" y="-230.3" font-family="Times,serif" font-size="14.00" fill="#000000">ipcu_operatorbool.h</text>
</g>
<!-- node15&#45;&gt;node24 -->
<g id="edge25" class="edge">
<title>node15&#45;&gt;node24</title>
<path fill="none" stroke="#000000" d="M5460.8051,-293.7512C5450.1802,-291.7984 5439.2878,-289.8224 5429,-288 5345.6654,-273.2376 5249.951,-257.2072 5185.0774,-246.4796"/>
<polygon fill="#000000" stroke="#000000" points="5185.3737,-242.9812 5174.937,-244.8044 5184.2327,-249.8876 5185.3737,-242.9812"/>
</g>
<!-- node15&#45;&gt;node32 -->
<g id="edge24" class="edge">
<title>node15&#45;&gt;node32</title>
<path fill="none" stroke="#000000" d="M5576.7849,-291.256C5618.0664,-279.2711 5676.2147,-262.3893 5718.6731,-250.0626"/>
<polygon fill="#000000" stroke="#000000" points="5719.6664,-253.4189 5728.294,-247.2695 5717.7147,-246.6964 5719.6664,-253.4189"/>
</g>
<!-- node15&#45;&gt;node60 -->
<g id="edge28" class="edge">
<title>node15&#45;&gt;node60</title>
<path fill="none" stroke="#000000" d="M5528.9403,-287.8866C5531.3678,-269.5797 5533.7196,-240.5646 5529,-216 5516.6923,-151.9413 5483.8858,-82.2364 5464.6401,-45.0237"/>
<polygon fill="#000000" stroke="#000000" points="5467.5745,-43.083 5459.8298,-35.8532 5461.3755,-46.3347 5467.5745,-43.083"/>
</g>
<!-- node72 -->
<g id="node73" class="node">
<title>node72</title>
<ellipse fill="none" stroke="#000000" cx="5322" cy="-162" rx="61.99" ry="18"/>
<text text-anchor="middle" x="5322" y="-158.3" font-family="Times,serif" font-size="14.00" fill="#000000">bdlb_variant.h</text>
</g>
<!-- node15&#45;&gt;node72 -->
<g id="edge27" class="edge">
<title>node15&#45;&gt;node72</title>
<path fill="none" stroke="#000000" d="M5527.2877,-287.6596C5527.659,-267.5132 5525.0197,-235.4429 5507,-216 5490.3139,-197.996 5431.9775,-182.8902 5385.2188,-173.2752"/>
<polygon fill="#000000" stroke="#000000" points="5385.6276,-169.7874 5375.134,-171.2484 5384.2483,-176.6502 5385.6276,-169.7874"/>
</g>
<!-- node17 -->
<g id="node18" class="node">
<title>node17</title>
<ellipse fill="none" stroke="#000000" cx="4842" cy="-306" rx="59.5901" ry="18"/>
<text text-anchor="middle" x="4842" y="-302.3" font-family="Times,serif" font-size="14.00" fill="#000000">bsl_sstream.h</text>
</g>
<!-- node18&#45;&gt;node25 -->
<g id="edge30" class="edge">
<title>node18&#45;&gt;node25</title>
<path fill="none" stroke="#000000" d="M4752.5118,-223.1571C4732.1548,-220.311 4709.7146,-217.5943 4689,-216 4650.2573,-213.0181 2204.6107,-173.0248 1642.3626,-163.8615"/>
<polygon fill="#000000" stroke="#000000" points="1642.2741,-160.3597 1632.2184,-163.6962 1642.16,-167.3588 1642.2741,-160.3597"/>
</g>
<!-- node18&#45;&gt;node60 -->
<g id="edge32" class="edge">
<title>node18&#45;&gt;node60</title>
<path fill="none" stroke="#000000" d="M4808.9497,-216.0036C4798.345,-196.1657 4786.2136,-164.3709 4803,-144 4876.9122,-54.3052 5240.8665,-27.622 5388.0578,-20.4259"/>
<polygon fill="#000000" stroke="#000000" points="5388.4513,-23.9113 5398.274,-19.9409 5388.1193,-16.9192 5388.4513,-23.9113"/>
</g>
<!-- node18&#45;&gt;node72 -->
<g id="edge31" class="edge">
<title>node18&#45;&gt;node72</title>
<path fill="none" stroke="#000000" d="M4892.5179,-224.6345C4971.4447,-214.3016 5101.3229,-196.8903 5213,-180 5227.7151,-177.7745 5243.5237,-175.2444 5258.411,-172.7988"/>
<polygon fill="#000000" stroke="#000000" points="5259.2502,-176.2077 5268.5457,-171.1241 5258.1088,-169.3014 5259.2502,-176.2077"/>
</g>
<!-- node42 -->
<g id="node43" class="node">
<title>node42</title>
<ellipse fill="none" stroke="#000000" cx="5878" cy="-90" rx="57.3905" ry="18"/>
<text text-anchor="middle" x="5878" y="-86.3" font-family="Times,serif" font-size="14.00" fill="#000000">ipcu_enum.h</text>
</g>
<!-- node19&#45;&gt;node42 -->
<g id="edge33" class="edge">
<title>node19&#45;&gt;node42</title>
<path fill="none" stroke="#000000" d="M5992.3759,-146.0209C5970.5194,-135.3156 5941.5919,-121.147 5918.2976,-109.7376"/>
<polygon fill="#000000" stroke="#000000" points="5919.5435,-106.4506 5909.0233,-105.1951 5916.4644,-112.7371 5919.5435,-106.4506"/>
</g>
<!-- node21 -->
<g id="node22" class="node">
<title>node21</title>
<ellipse fill="none" stroke="#000000" cx="3901" cy="-306" rx="59.5901" ry="18"/>
<text text-anchor="middle" x="3901" y="-302.3" font-family="Times,serif" font-size="14.00" fill="#000000">bsls_atomic.h</text>
</g>
<!-- node22 -->
<g id="node23" class="node">
<title>node22</title>
<ellipse fill="none" stroke="#000000" cx="5562" cy="-18" rx="42.4939" ry="18"/>
<text text-anchor="middle" x="5562" y="-14.3" font-family="Times,serif" font-size="14.00" fill="#000000">bsl_ios.h</text>
</g>
<!-- node23 -->
<g id="node24" class="node">
<title>node23</title>
<ellipse fill="none" stroke="#000000" cx="5605" cy="-450" rx="73.387" ry="18"/>
<text text-anchor="middle" x="5605" y="-446.3" font-family="Times,serif" font-size="14.00" fill="#000000">ipcmq_queue.cpp</text>
</g>
<!-- node23&#45;&gt;node5 -->
<g id="edge34" class="edge">
<title>node23&#45;&gt;node5</title>
<path fill="none" stroke="#000000" d="M5605,-431.8314C5605,-424.131 5605,-414.9743 5605,-406.4166"/>
<polygon fill="#000000" stroke="#000000" points="5608.5001,-406.4132 5605,-396.4133 5601.5001,-406.4133 5608.5001,-406.4132"/>
</g>
<!-- node26 -->
<g id="node27" class="node">
<title>node26</title>
<ellipse fill="none" stroke="#000000" cx="5109" cy="-162" rx="94.7833" ry="18"/>
<text text-anchor="middle" x="5109" y="-158.3" font-family="Times,serif" font-size="14.00" fill="#000000">bsls_compilerfeatures.h</text>
</g>
<!-- node24&#45;&gt;node26 -->
<g id="edge36" class="edge">
<title>node24&#45;&gt;node26</title>
<path fill="none" stroke="#000000" d="M5109,-215.8314C5109,-208.131 5109,-198.9743 5109,-190.4166"/>
<polygon fill="#000000" stroke="#000000" points="5112.5001,-190.4132 5109,-180.4133 5105.5001,-190.4133 5112.5001,-190.4132"/>
</g>
<!-- node53 -->
<g id="node54" class="node">
<title>node53</title>
<ellipse fill="none" stroke="#000000" cx="4904" cy="-162" rx="91.784" ry="18"/>
<text text-anchor="middle" x="4904" y="-158.3" font-family="Times,serif" font-size="14.00" fill="#000000">bsls_unspecifiedbool.h</text>
</g>
<!-- node24&#45;&gt;node53 -->
<g id="edge35" class="edge">
<title>node24&#45;&gt;node53</title>
<path fill="none" stroke="#000000" d="M5065.5248,-218.7307C5034.2891,-207.7601 4991.9598,-192.8932 4958.4698,-181.1309"/>
<polygon fill="#000000" stroke="#000000" points="4959.4246,-177.7566 4948.8297,-177.7451 4957.1049,-184.3611 4959.4246,-177.7566"/>
</g>
<!-- node25&#45;&gt;node54 -->
<g id="edge37" class="edge">
<title>node25&#45;&gt;node54</title>
<path fill="none" stroke="#000000" d="M1553.6275,-144.3428C1591.6871,-118.1199 1663.1176,-68.9046 1704.7032,-40.2523"/>
<polygon fill="#000000" stroke="#000000" points="1706.8525,-43.0218 1713.1014,-34.466 1702.881,-37.2575 1706.8525,-43.0218"/>
</g>
<!-- node27 -->
<g id="node28" class="node">
<title>node27</title>
<ellipse fill="none" stroke="#000000" cx="1783" cy="-234" rx="55.7903" ry="18"/>
<text text-anchor="middle" x="1783" y="-230.3" font-family="Times,serif" font-size="14.00" fill="#000000">bsl_cstdlib.h</text>
</g>
<!-- node28 -->
<g id="node29" class="node">
<title>node28</title>
<ellipse fill="none" stroke="#000000" cx="511" cy="-234" rx="38.1938" ry="18"/>
<text text-anchor="middle" x="511" y="-230.3" font-family="Times,serif" font-size="14.00" fill="#000000">limits.h</text>
</g>
<!-- node29 -->
<g id="node30" class="node">
<title>node29</title>
<ellipse fill="none" stroke="#000000" cx="3425" cy="-306" rx="59.2899" ry="18"/>
<text text-anchor="middle" x="3425" y="-302.3" font-family="Times,serif" font-size="14.00" fill="#000000">chopsuey.cpp</text>
</g>
<!-- node29&#45;&gt;node0 -->
<g id="edge41" class="edge">
<title>node29&#45;&gt;node0</title>
<path fill="none" stroke="#000000" d="M3452.3792,-289.8418C3469.1631,-279.9365 3490.8855,-267.1168 3509.2832,-256.2591"/>
<polygon fill="#000000" stroke="#000000" points="3511.1784,-259.2047 3518.0116,-251.1079 3507.6206,-253.1763 3511.1784,-259.2047"/>
</g>
<!-- node29&#45;&gt;node13 -->
<g id="edge44" class="edge">
<title>node29&#45;&gt;node13</title>
<path fill="none" stroke="#000000" d="M3367.1932,-301.9323C3255.0789,-293.673 3012.0051,-273.8575 2931,-252 2892.9649,-241.737 2888.4317,-224.6605 2850,-216 2694.2987,-180.9132 1573.4326,-187.4302 1414,-180 1341.9385,-176.6416 1258.9489,-170.6306 1205.552,-166.4848"/>
<polygon fill="#000000" stroke="#000000" points="1205.5216,-162.9719 1195.2792,-165.6819 1204.976,-169.9506 1205.5216,-162.9719"/>
</g>
<!-- node29&#45;&gt;node18 -->
<g id="edge45" class="edge">
<title>node29&#45;&gt;node18</title>
<path fill="none" stroke="#000000" d="M3483.6357,-303.366C3562.7273,-299.8223 3707.9862,-293.347 3832,-288 4212.8709,-271.5782 4309.2931,-285.9852 4689,-252 4706.0115,-250.4774 4724.1994,-248.3195 4741.4432,-246.0242"/>
<polygon fill="#000000" stroke="#000000" points="4742.0338,-249.4762 4751.471,-244.6607 4741.0905,-242.5401 4742.0338,-249.4762"/>
</g>
<!-- node29&#45;&gt;node20 -->
<g id="edge38" class="edge">
<title>node29&#45;&gt;node20</title>
<path fill="none" stroke="#000000" d="M3467.9553,-293.6085C3474.973,-291.6735 3482.1778,-289.7404 3489,-288 3558.367,-270.3036 3582.8988,-285.8108 3646,-252 3666.5063,-241.0124 3663.9561,-227.81 3684,-216 3866.7457,-108.3254 3934.468,-128.1825 4139,-72 4196.3492,-56.2469 4262.5002,-41.0838 4309.2756,-30.8574"/>
<polygon fill="#000000" stroke="#000000" points="4310.2206,-34.2338 4319.2479,-28.6878 4308.7324,-27.3938 4310.2206,-34.2338"/>
</g>
<!-- node29&#45;&gt;node54 -->
<g id="edge43" class="edge">
<title>node29&#45;&gt;node54</title>
<path fill="none" stroke="#000000" d="M3366.1598,-303.5945C3258.4885,-298.4603 3034.352,-284.1707 2964,-252 2899.3448,-222.4344 2910.3764,-174.1678 2846,-144 2631.1427,-43.3144 2552.7372,-99.0043 2317,-72 2130.1205,-50.5925 1908.6223,-31.7866 1801.4631,-23.1026"/>
<polygon fill="#000000" stroke="#000000" points="1801.7042,-19.6108 1791.4548,-22.2941 1801.1404,-26.5881 1801.7042,-19.6108"/>
</g>
<!-- node59 -->
<g id="node60" class="node">
<title>node59</title>
<ellipse fill="none" stroke="#000000" cx="3770" cy="-234" rx="76.8869" ry="18"/>
<text text-anchor="middle" x="3770" y="-230.3" font-family="Times,serif" font-size="14.00" fill="#000000">bdlt_currenttime.h</text>
</g>
<!-- node29&#45;&gt;node59 -->
<g id="edge42" class="edge">
<title>node29&#45;&gt;node59</title>
<path fill="none" stroke="#000000" d="M3474.0637,-295.7606C3533.8723,-283.2788 3635.2542,-262.1209 3702.4181,-248.1041"/>
<polygon fill="#000000" stroke="#000000" points="3703.4068,-251.4732 3712.4808,-246.004 3701.9767,-244.6208 3703.4068,-251.4732"/>
</g>
<!-- node66 -->
<g id="node67" class="node">
<title>node66</title>
<ellipse fill="none" stroke="#000000" cx="3061" cy="-234" rx="88.2844" ry="18"/>
<text text-anchor="middle" x="3061" y="-230.3" font-family="Times,serif" font-size="14.00" fill="#000000">ball_loggermanager.h</text>
</g>
<!-- node29&#45;&gt;node66 -->
<g id="edge39" class="edge">
<title>node29&#45;&gt;node66</title>
<path fill="none" stroke="#000000" d="M3375.1506,-296.1397C3312.9465,-283.8356 3206.058,-262.6928 3134.4672,-248.532"/>
<polygon fill="#000000" stroke="#000000" points="3135.0971,-245.0888 3124.608,-246.5818 3133.7388,-251.9558 3135.0971,-245.0888"/>
</g>
<!-- node67 -->
<g id="node68" class="node">
<title>node67</title>
<ellipse fill="none" stroke="#000000" cx="3303" cy="-234" rx="135.6761" ry="18"/>
<text text-anchor="middle" x="3303" y="-230.3" font-family="Times,serif" font-size="14.00" fill="#000000">ball_loggermanagerconfiguration.h</text>
</g>
<!-- node29&#45;&gt;node67 -->
<g id="edge40" class="edge">
<title>node29&#45;&gt;node67</title>
<path fill="none" stroke="#000000" d="M3397.6208,-289.8418C3381.0784,-280.079 3359.7386,-267.4851 3341.513,-256.729"/>
<polygon fill="#000000" stroke="#000000" points="3343.2416,-253.6851 3332.8507,-251.6168 3339.6838,-259.7136 3343.2416,-253.6851"/>
</g>
<!-- node30 -->
<g id="node31" class="node">
<title>node30</title>
<ellipse fill="none" stroke="#000000" cx="1024" cy="-306" rx="92.8835" ry="18"/>
<text text-anchor="middle" x="1024" y="-302.3" font-family="Times,serif" font-size="14.00" fill="#000000">ipcmq_posixqueue.cpp</text>
</g>
<!-- node30&#45;&gt;node7 -->
<g id="edge59" class="edge">
<title>node30&#45;&gt;node7</title>
<path fill="none" stroke="#000000" d="M1079.3195,-291.5163C1126.1769,-279.2482 1193.1462,-261.7145 1240.8035,-249.2369"/>
<polygon fill="#000000" stroke="#000000" points="1241.8783,-252.5735 1250.6658,-246.6548 1240.1053,-245.8018 1241.8783,-252.5735"/>
</g>
<!-- node30&#45;&gt;node8 -->
<g id="edge52" class="edge">
<title>node30&#45;&gt;node8</title>
<path fill="none" stroke="#000000" d="M1102.2608,-296.2727C1123.8817,-293.5887 1147.3496,-290.6784 1169,-288 1298.7711,-271.9457 1333.6224,-281.5502 1461,-252 1464.359,-251.2208 1467.8044,-250.3034 1471.2453,-249.3025"/>
<polygon fill="#000000" stroke="#000000" points="1472.3501,-252.6242 1480.8542,-246.3052 1470.2656,-245.9418 1472.3501,-252.6242"/>
</g>
<!-- node30&#45;&gt;node13 -->
<g id="edge54" class="edge">
<title>node30&#45;&gt;node13</title>
<path fill="none" stroke="#000000" d="M1023.6534,-287.8824C1024.1923,-268.2305 1027.8252,-236.8776 1044,-216 1058.6436,-197.0988 1081.7206,-184.2494 1102.6086,-175.8436"/>
<polygon fill="#000000" stroke="#000000" points="1103.8972,-179.0983 1112.0136,-172.2885 1101.422,-172.5505 1103.8972,-179.0983"/>
</g>
<!-- node30&#45;&gt;node18 -->
<g id="edge58" class="edge">
<title>node30&#45;&gt;node18</title>
<path fill="none" stroke="#000000" d="M1098.3558,-295.1286C1120.9881,-292.2627 1145.9678,-289.5424 1169,-288 1949.515,-235.7318 3908.8425,-309.3574 4689,-252 4706.3206,-250.7266 4724.8444,-248.6339 4742.3476,-246.3173"/>
<polygon fill="#000000" stroke="#000000" points="4743.0824,-249.7496 4752.5185,-244.9319 4742.1376,-242.8136 4743.0824,-249.7496"/>
</g>
<!-- node30&#45;&gt;node28 -->
<g id="edge57" class="edge">
<title>node30&#45;&gt;node28</title>
<path fill="none" stroke="#000000" d="M933.2828,-301.9917C838.7211,-296.302 686.7764,-282.8889 559,-252 555.7992,-251.2262 552.5209,-250.3001 549.2545,-249.2819"/>
<polygon fill="#000000" stroke="#000000" points="550.174,-245.8982 539.5798,-246.0109 547.932,-252.5294 550.174,-245.8982"/>
</g>
<!-- node37 -->
<g id="node38" class="node">
<title>node37</title>
<ellipse fill="none" stroke="#000000" cx="604" cy="-234" rx="36.2938" ry="18"/>
<text text-anchor="middle" x="604" y="-230.3" font-family="Times,serif" font-size="14.00" fill="#000000">errno.h</text>
</g>
<!-- node30&#45;&gt;node37 -->
<g id="edge56" class="edge">
<title>node30&#45;&gt;node37</title>
<path fill="none" stroke="#000000" d="M937.1878,-299.3862C860.4188,-292.152 745.891,-277.9579 649,-252 646.3483,-251.2896 643.6417,-250.4679 640.9371,-249.5749"/>
<polygon fill="#000000" stroke="#000000" points="641.8487,-246.1835 631.2542,-246.0997 639.484,-252.772 641.8487,-246.1835"/>
</g>
<!-- node43 -->
<g id="node44" class="node">
<title>node43</title>
<ellipse fill="none" stroke="#000000" cx="696" cy="-234" rx="37.8943" ry="18"/>
<text text-anchor="middle" x="696" y="-230.3" font-family="Times,serif" font-size="14.00" fill="#000000">string.h</text>
</g>
<!-- node30&#45;&gt;node43 -->
<g id="edge48" class="edge">
<title>node30&#45;&gt;node43</title>
<path fill="none" stroke="#000000" d="M949.2086,-295.3012C892.1038,-286.2517 811.7928,-271.618 743,-252 740.0696,-251.1643 737.0653,-250.2223 734.0617,-249.2183"/>
<polygon fill="#000000" stroke="#000000" points="735.1565,-245.8931 724.5617,-245.8556 732.8206,-252.4919 735.1565,-245.8931"/>
</g>
<!-- node46 -->
<g id="node47" class="node">
<title>node46</title>
<ellipse fill="none" stroke="#000000" cx="798" cy="-234" rx="46.2923" ry="18"/>
<text text-anchor="middle" x="798" y="-230.3" font-family="Times,serif" font-size="14.00" fill="#000000">mqueue.h</text>
</g>
<!-- node30&#45;&gt;node46 -->
<g id="edge49" class="edge">
<title>node30&#45;&gt;node46</title>
<path fill="none" stroke="#000000" d="M974.9399,-290.656C940.7331,-279.9212 894.0491,-265.1982 853,-252 849.745,-250.9534 846.3835,-249.8671 843.0012,-248.7699"/>
<polygon fill="#000000" stroke="#000000" points="844.0782,-245.4398 833.4859,-245.6736 841.9121,-252.0962 844.0782,-245.4398"/>
</g>
<!-- node47 -->
<g id="node48" class="node">
<title>node47</title>
<ellipse fill="none" stroke="#000000" cx="927" cy="-234" rx="64.9885" ry="18"/>
<text text-anchor="middle" x="927" y="-230.3" font-family="Times,serif" font-size="14.00" fill="#000000">bdlb_guidutil.h</text>
</g>
<!-- node30&#45;&gt;node47 -->
<g id="edge50" class="edge">
<title>node30&#45;&gt;node47</title>
<path fill="none" stroke="#000000" d="M1000.519,-288.5708C987.7966,-279.1273 971.9112,-267.3361 958.1651,-257.1328"/>
<polygon fill="#000000" stroke="#000000" points="960.0458,-254.1701 949.93,-251.0202 955.8737,-259.7909 960.0458,-254.1701"/>
</g>
<!-- node30&#45;&gt;node54 -->
<g id="edge53" class="edge">
<title>node30&#45;&gt;node54</title>
<path fill="none" stroke="#000000" d="M931.4625,-304.0096C702.042,-298.6248 123.4114,-282.1109 95,-252 84.0195,-240.3627 84.3851,-227.9718 95,-216 201.662,-95.7035 1378.5021,-34.3448 1671.3252,-20.8737"/>
<polygon fill="#000000" stroke="#000000" points="1671.536,-24.3678 1681.3657,-20.4147 1671.2162,-17.3751 1671.536,-24.3678"/>
</g>
<!-- node55 -->
<g id="node56" class="node">
<title>node55</title>
<ellipse fill="none" stroke="#000000" cx="401" cy="-234" rx="53.0913" ry="18"/>
<text text-anchor="middle" x="401" y="-230.3" font-family="Times,serif" font-size="14.00" fill="#000000">bdlb_guid.h</text>
</g>
<!-- node30&#45;&gt;node55 -->
<g id="edge60" class="edge">
<title>node30&#45;&gt;node55</title>
<path fill="none" stroke="#000000" d="M932.5922,-302.3004C821.1289,-296.6172 627.3829,-282.9503 464,-252 459.3548,-251.12 454.5573,-250.0514 449.7795,-248.8784"/>
<polygon fill="#000000" stroke="#000000" points="450.6138,-245.479 440.0549,-246.3515 448.8532,-252.254 450.6138,-245.479"/>
</g>
<!-- node30&#45;&gt;node58 -->
<g id="edge61" class="edge">
<title>node30&#45;&gt;node58</title>
<path fill="none" stroke="#000000" d="M1053.8602,-288.937C1071.4964,-278.8592 1093.9762,-266.0136 1112.7633,-255.2781"/>
<polygon fill="#000000" stroke="#000000" points="1114.706,-258.1992 1121.652,-250.1989 1111.233,-252.1214 1114.706,-258.1992"/>
</g>
<!-- node62 -->
<g id="node63" class="node">
<title>node62</title>
<ellipse fill="none" stroke="#000000" cx="2902" cy="-18" rx="58.4896" ry="18"/>
<text text-anchor="middle" x="2902" y="-14.3" font-family="Times,serif" font-size="14.00" fill="#000000">bslmt_once.h</text>
</g>
<!-- node30&#45;&gt;node62 -->
<g id="edge47" class="edge">
<title>node30&#45;&gt;node62</title>
<path fill="none" stroke="#000000" d="M1029.7219,-287.7215C1037.1846,-267.0059 1052.287,-233.8126 1077,-216 1108.0618,-193.6113 1376.1261,-149.6265 1414,-144 1958.0462,-63.1769 2622.283,-29.7797 2833.8712,-20.71"/>
<polygon fill="#000000" stroke="#000000" points="2834.0577,-24.2053 2843.9001,-20.2838 2833.7605,-17.2116 2834.0577,-24.2053"/>
</g>
<!-- node30&#45;&gt;node69 -->
<g id="edge46" class="edge">
<title>node30&#45;&gt;node69</title>
<path fill="none" stroke="#000000" d="M1098.3589,-295.1741C1120.9913,-292.3097 1145.9702,-289.5789 1169,-288 1764.7662,-247.1551 3262.3603,-316.7885 3856,-252 3863.1682,-251.2177 3870.6197,-250.1208 3878.0119,-248.8504"/>
<polygon fill="#000000" stroke="#000000" points="3878.8141,-252.2619 3888.0234,-247.0236 3877.5575,-245.3756 3878.8141,-252.2619"/>
</g>
<!-- node71 -->
<g id="node72" class="node">
<title>node71</title>
<ellipse fill="none" stroke="#000000" cx="3305" cy="-18" rx="67.6881" ry="18"/>
<text text-anchor="middle" x="3305" y="-14.3" font-family="Times,serif" font-size="14.00" fill="#000000">bslma_default.h</text>
</g>
<!-- node30&#45;&gt;node71 -->
<g id="edge51" class="edge">
<title>node30&#45;&gt;node71</title>
<path fill="none" stroke="#000000" d="M1101.454,-295.9042C1123.2818,-293.1898 1147.057,-290.3562 1169,-288 1345.1557,-269.0845 1391.1369,-280.4876 1566,-252 1634.5211,-240.837 1649.7194,-228.5502 1718,-216 2199.9029,-127.4244 2324.5443,-130.625 2811,-72 2960.1718,-54.0226 3135.004,-35.514 3231.5476,-25.5168"/>
<polygon fill="#000000" stroke="#000000" points="3232.1972,-28.9683 3241.7841,-24.4583 3231.4771,-22.0055 3232.1972,-28.9683"/>
</g>
<!-- node78 -->
<g id="node79" class="node">
<title>node78</title>
<ellipse fill="none" stroke="#000000" cx="1418" cy="-234" rx="33.5952" ry="18"/>
<text text-anchor="middle" x="1418" y="-230.3" font-family="Times,serif" font-size="14.00" fill="#000000">fcntl.h</text>
</g>
<!-- node30&#45;&gt;node78 -->
<g id="edge55" class="edge">
<title>node30&#45;&gt;node78</title>
<path fill="none" stroke="#000000" d="M1102.485,-296.3065C1190.078,-285.0735 1326.068,-266.2802 1376,-252 1378.3168,-251.3374 1380.6751,-250.5787 1383.0324,-249.7559"/>
<polygon fill="#000000" stroke="#000000" points="1384.5178,-252.9351 1392.609,-246.0953 1382.0185,-246.3965 1384.5178,-252.9351"/>
</g>
<!-- node31 -->
<g id="node32" class="node">
<title>node31</title>
<ellipse fill="none" stroke="#000000" cx="4418" cy="-306" rx="96.3833" ry="18"/>
<text text-anchor="middle" x="4418" y="-302.3" font-family="Times,serif" font-size="14.00" fill="#000000">closewhilereceiving.cpp</text>
</g>
<!-- node31&#45;&gt;node18 -->
<g id="edge67" class="edge">
<title>node31&#45;&gt;node18</title>
<path fill="none" stroke="#000000" d="M4487.5641,-293.5408C4559.4642,-280.6631 4671.321,-260.6291 4745.1189,-247.4115"/>
<polygon fill="#000000" stroke="#000000" points="4746.0451,-250.8014 4755.2714,-245.5932 4744.8109,-243.9111 4746.0451,-250.8014"/>
</g>
<!-- node31&#45;&gt;node20 -->
<g id="edge63" class="edge">
<title>node31&#45;&gt;node20</title>
<path fill="none" stroke="#000000" d="M4405.7991,-287.8292C4399.655,-277.7208 4392.7344,-264.6559 4389,-252 4367.7939,-180.1318 4367.2468,-90.8083 4368.6232,-46.1634"/>
<polygon fill="#000000" stroke="#000000" points="4372.1246,-46.1874 4368.9924,-36.0662 4365.1292,-45.9316 4372.1246,-46.1874"/>
</g>
<!-- node38 -->
<g id="node39" class="node">
<title>node38</title>
<ellipse fill="none" stroke="#000000" cx="4153" cy="-234" rx="75.2868" ry="18"/>
<text text-anchor="middle" x="4153" y="-230.3" font-family="Times,serif" font-size="14.00" fill="#000000">bslmt_threadutil.h</text>
</g>
<!-- node31&#45;&gt;node38 -->
<g id="edge68" class="edge">
<title>node31&#45;&gt;node38</title>
<path fill="none" stroke="#000000" d="M4363.4131,-291.1689C4319.5134,-279.2414 4257.9163,-262.5055 4212.7101,-250.2231"/>
<polygon fill="#000000" stroke="#000000" points="4213.6051,-246.8395 4203.0373,-247.595 4211.7697,-253.5946 4213.6051,-246.8395"/>
</g>
<!-- node41 -->
<g id="node42" class="node">
<title>node41</title>
<ellipse fill="none" stroke="#000000" cx="4628" cy="-234" rx="51.9908" ry="18"/>
<text text-anchor="middle" x="4628" y="-230.3" font-family="Times,serif" font-size="14.00" fill="#000000">bdlf_bind.h</text>
</g>
<!-- node31&#45;&gt;node41 -->
<g id="edge64" class="edge">
<title>node31&#45;&gt;node41</title>
<path fill="none" stroke="#000000" d="M4464.0854,-290.1993C4498.8489,-278.2804 4546.3513,-261.9938 4581.2708,-250.0214"/>
<polygon fill="#000000" stroke="#000000" points="4582.4409,-253.3203 4590.7652,-246.7662 4580.1706,-246.6987 4582.4409,-253.3203"/>
</g>
<!-- node31&#45;&gt;node54 -->
<g id="edge65" class="edge">
<title>node31&#45;&gt;node54</title>
<path fill="none" stroke="#000000" d="M4395.934,-288.4556C4368.2562,-267.4662 4318.5215,-233.0313 4270,-216 3795.1265,-49.317 2154.2297,-22.4673 1803.3574,-18.601"/>
<polygon fill="#000000" stroke="#000000" points="1803.1497,-15.0986 1793.1126,-18.4906 1803.0743,-22.0982 1803.1497,-15.0986"/>
</g>
<!-- node31&#45;&gt;node60 -->
<g id="edge66" class="edge">
<title>node31&#45;&gt;node60</title>
<path fill="none" stroke="#000000" d="M4459.2997,-289.7089C4480.9829,-280.2367 4507.4491,-267.1779 4529,-252 4552.3831,-235.5317 4686.9296,-83.7605 4713,-72 4773.7818,-44.5809 5221.8964,-26.0826 5388.1532,-20.099"/>
<polygon fill="#000000" stroke="#000000" points="5388.3505,-23.5943 5398.2192,-19.7396 5388.1007,-16.5987 5388.3505,-23.5943"/>
</g>
<!-- node31&#45;&gt;node69 -->
<g id="edge62" class="edge">
<title>node31&#45;&gt;node69</title>
<path fill="none" stroke="#000000" d="M4342.9969,-294.6311C4254.3885,-281.1999 4107.8059,-258.9811 4018.836,-245.4951"/>
<polygon fill="#000000" stroke="#000000" points="4019.2244,-242.0141 4008.8128,-243.9758 4018.1753,-248.9351 4019.2244,-242.0141"/>
</g>
<!-- node32&#45;&gt;node60 -->
<g id="edge69" class="edge">
<title>node32&#45;&gt;node60</title>
<path fill="none" stroke="#000000" d="M5759.4252,-216.1871C5750.9836,-205.7495 5740.2336,-192.2495 5731,-180 5695.5155,-132.9255 5702.6864,-105.2384 5654,-72 5599.8725,-35.047 5574.2201,-53.2778 5511,-36 5507.1556,-34.9493 5503.1827,-33.8371 5499.1939,-32.7016"/>
<polygon fill="#000000" stroke="#000000" points="5499.8885,-29.2594 5489.3103,-29.8528 5497.9497,-35.9856 5499.8885,-29.2594"/>
</g>
<!-- node33 -->
<g id="node34" class="node">
<title>node33</title>
<ellipse fill="none" stroke="#000000" cx="6176" cy="-234" rx="76.8869" ry="18"/>
<text text-anchor="middle" x="6176" y="-230.3" font-family="Times,serif" font-size="14.00" fill="#000000">ipcmq_format.cpp</text>
</g>
<!-- node33&#45;&gt;node19 -->
<g id="edge70" class="edge">
<title>node33&#45;&gt;node19</title>
<path fill="none" stroke="#000000" d="M6142.1127,-217.8418C6120.0049,-207.3004 6090.9745,-193.4581 6067.3485,-182.1927"/>
<polygon fill="#000000" stroke="#000000" points="6068.7872,-179.0012 6058.2544,-177.8564 6065.7744,-185.3197 6068.7872,-179.0012"/>
</g>
<!-- node34 -->
<g id="node35" class="node">
<title>node34</title>
<ellipse fill="none" stroke="#000000" cx="3065" cy="-378" rx="61.99" ry="18"/>
<text text-anchor="middle" x="3065" y="-374.3" font-family="Times,serif" font-size="14.00" fill="#000000">bdlf_memfn.h</text>
</g>
<!-- node35 -->
<g id="node36" class="node">
<title>node35</title>
<ellipse fill="none" stroke="#000000" cx="3663" cy="-378" rx="84.485" ry="18"/>
<text text-anchor="middle" x="3663" y="-374.3" font-family="Times,serif" font-size="14.00" fill="#000000">bslma_stdallocator.h</text>
</g>
<!-- node36 -->
<g id="node37" class="node">
<title>node36</title>
<ellipse fill="none" stroke="#000000" cx="5715" cy="-18" rx="92.0841" ry="18"/>
<text text-anchor="middle" x="5715" y="-14.3" font-family="Times,serif" font-size="14.00" fill="#000000">bdlat_enumfunctions.h</text>
</g>
<!-- node39 -->
<g id="node40" class="node">
<title>node39</title>
<ellipse fill="none" stroke="#000000" cx="5878" cy="-18" rx="52.7911" ry="18"/>
<text text-anchor="middle" x="5878" y="-14.3" font-family="Times,serif" font-size="14.00" fill="#000000">bslh_hash.h</text>
</g>
<!-- node40 -->
<g id="node41" class="node">
<title>node40</title>
<ellipse fill="none" stroke="#000000" cx="3247" cy="-378" rx="102.0819" ry="18"/>
<text text-anchor="middle" x="3247" y="-374.3" font-family="Times,serif" font-size="14.00" fill="#000000">ipcmq_queuereceiver.cpp</text>
</g>
<!-- node40&#45;&gt;node54 -->
<g id="edge73" class="edge">
<title>node40&#45;&gt;node54</title>
<path fill="none" stroke="#000000" d="M3176.4318,-364.989C3163.0473,-362.9668 3149.1261,-361.1648 3136,-360 2645.8612,-316.5038 1413.4269,-349.0514 922,-324 716.4042,-313.5194 0,-439.8627 0,-234 0,-234 0,-234 0,-162 0,84.3798 301.9568,-97.6288 547,-72 767.7137,-48.9158 1454.6809,-26.5853 1671.0472,-19.968"/>
<polygon fill="#000000" stroke="#000000" points="1671.4062,-23.4588 1681.2948,-19.6556 1671.1928,-16.462 1671.4062,-23.4588"/>
</g>
<!-- node40&#45;&gt;node58 -->
<g id="edge75" class="edge">
<title>node40&#45;&gt;node58</title>
<path fill="none" stroke="#000000" d="M3176.1323,-364.9658C3162.8394,-362.9598 3149.0277,-361.1695 3136,-360 3081.5708,-355.1138 1211.129,-358.8074 1169,-324 1151.2827,-309.3618 1147.4809,-282.7391 1147.5482,-262.2326"/>
<polygon fill="#000000" stroke="#000000" points="1151.0487,-262.2732 1147.8829,-252.1624 1144.0526,-262.0406 1151.0487,-262.2732"/>
</g>
<!-- node40&#45;&gt;node59 -->
<g id="edge72" class="edge">
<title>node40&#45;&gt;node59</title>
<path fill="none" stroke="#000000" d="M3316.0995,-364.7192C3365.6471,-354.7383 3433.818,-340.0684 3493,-324 3572.4092,-302.4397 3662.79,-271.9236 3718.1072,-252.5492"/>
<polygon fill="#000000" stroke="#000000" points="3719.4082,-255.8019 3727.6821,-249.1842 3717.0872,-249.1978 3719.4082,-255.8019"/>
</g>
<!-- node40&#45;&gt;node69 -->
<g id="edge71" class="edge">
<title>node40&#45;&gt;node69</title>
<path fill="none" stroke="#000000" d="M3322.2976,-365.7482C3400.9447,-352.8483 3519.0058,-333.1647 3564,-324 3676.4124,-301.1031 3806.2604,-269.0333 3881.0791,-250.0008"/>
<polygon fill="#000000" stroke="#000000" points="3881.992,-253.3801 3890.8174,-247.518 3880.2627,-246.597 3881.992,-253.3801"/>
</g>
<!-- node40&#45;&gt;node75 -->
<g id="edge74" class="edge">
<title>node40&#45;&gt;node75</title>
<path fill="none" stroke="#000000" d="M3317.8691,-364.9808C3331.1618,-362.9733 3344.9731,-361.1786 3358,-360 4166.8536,-286.8165 4375.0254,-383.5081 5185,-324 5203.274,-322.6574 5222.809,-320.5794 5241.3362,-318.3056"/>
<polygon fill="#000000" stroke="#000000" points="5242.0261,-321.7465 5251.511,-317.0256 5241.1523,-314.8012 5242.0261,-321.7465"/>
</g>
<!-- node42&#45;&gt;node11 -->
<g id="edge87" class="edge">
<title>node42&#45;&gt;node11</title>
<path fill="none" stroke="#000000" d="M5820.9471,-88.4728C5615.3848,-82.8801 4893.3461,-62.4569 4298,-36 4209.0381,-32.0466 4106.6137,-26.2453 4039.9958,-22.3053"/>
<polygon fill="#000000" stroke="#000000" points="4039.8088,-18.7882 4029.619,-21.6895 4039.3941,-25.7759 4039.8088,-18.7882"/>
</g>
<!-- node42&#45;&gt;node20 -->
<g id="edge77" class="edge">
<title>node42&#45;&gt;node20</title>
<path fill="none" stroke="#000000" d="M5821.1823,-87.2872C5587.7712,-76.1429 4702.7343,-33.8865 4442.4286,-21.4581"/>
<polygon fill="#000000" stroke="#000000" points="4442.4889,-17.9571 4432.3333,-20.9761 4442.155,-24.9491 4442.4889,-17.9571"/>
</g>
<!-- node42&#45;&gt;node22 -->
<g id="edge78" class="edge">
<title>node42&#45;&gt;node22</title>
<path fill="none" stroke="#000000" d="M5834.1699,-78.4221C5825.2062,-76.1858 5815.8181,-73.9381 5807,-72 5721.7769,-53.2689 5698.3508,-58.3332 5614,-36 5610.6191,-35.1048 5607.1417,-34.0976 5603.6646,-33.0286"/>
<polygon fill="#000000" stroke="#000000" points="5604.5381,-29.6329 5593.9465,-29.8945 5602.3894,-36.295 5604.5381,-29.6329"/>
</g>
<!-- node42&#45;&gt;node36 -->
<g id="edge86" class="edge">
<title>node42&#45;&gt;node36</title>
<path fill="none" stroke="#000000" d="M5844.6212,-75.256C5820.7307,-64.7031 5788.2454,-50.3538 5761.7728,-38.6604"/>
<polygon fill="#000000" stroke="#000000" points="5762.8804,-35.3234 5752.3188,-34.4844 5760.052,-41.7266 5762.8804,-35.3234"/>
</g>
<!-- node42&#45;&gt;node39 -->
<g id="edge82" class="edge">
<title>node42&#45;&gt;node39</title>
<path fill="none" stroke="#000000" d="M5878,-71.8314C5878,-64.131 5878,-54.9743 5878,-46.4166"/>
<polygon fill="#000000" stroke="#000000" points="5881.5001,-46.4132 5878,-36.4133 5874.5001,-46.4133 5881.5001,-46.4132"/>
</g>
<!-- node42&#45;&gt;node54 -->
<g id="edge83" class="edge">
<title>node42&#45;&gt;node54</title>
<path fill="none" stroke="#000000" d="M5820.6454,-89.0028C5361.9596,-81.0276 2294.3594,-27.6909 1803.2607,-19.1521"/>
<polygon fill="#000000" stroke="#000000" points="1803.2095,-15.6508 1793.1501,-18.9763 1803.0877,-22.6497 1803.2095,-15.6508"/>
</g>
<!-- node57 -->
<g id="node58" class="node">
<title>node57</title>
<ellipse fill="none" stroke="#000000" cx="6009" cy="-18" rx="60.3893" ry="18"/>
<text text-anchor="middle" x="6009" y="-14.3" font-family="Times,serif" font-size="14.00" fill="#000000">bsl_ostream.h</text>
</g>
<!-- node42&#45;&gt;node57 -->
<g id="edge81" class="edge">
<title>node42&#45;&gt;node57</title>
<path fill="none" stroke="#000000" d="M5906.425,-74.3771C5925.4346,-63.9291 5950.6563,-50.0668 5971.3324,-38.7028"/>
<polygon fill="#000000" stroke="#000000" points="5973.1003,-41.725 5980.178,-33.8411 5969.7286,-35.5905 5973.1003,-41.725"/>
</g>
<!-- node42&#45;&gt;node60 -->
<g id="edge85" class="edge">
<title>node42&#45;&gt;node60</title>
<path fill="none" stroke="#000000" d="M5834.6379,-78.076C5825.5539,-75.8404 5816.0001,-73.6811 5807,-72 5676.7281,-47.667 5640.7774,-62.8458 5511,-36 5506.8033,-35.1319 5502.477,-34.1132 5498.1568,-33.0097"/>
<polygon fill="#000000" stroke="#000000" points="5498.7179,-29.536 5488.1515,-30.3114 5496.8952,-36.2946 5498.7179,-29.536"/>
</g>
<!-- node42&#45;&gt;node62 -->
<g id="edge76" class="edge">
<title>node42&#45;&gt;node62</title>
<path fill="none" stroke="#000000" d="M5820.637,-89.5706C5538.2728,-87.3018 4267.806,-75.2886 3228,-36 3138.613,-32.6225 3035.5509,-26.5692 2969.6398,-22.4224"/>
<polygon fill="#000000" stroke="#000000" points="2969.5893,-18.9123 2959.3883,-21.7739 2969.1473,-25.8983 2969.5893,-18.9123"/>
</g>
<!-- node64 -->
<g id="node65" class="node">
<title>node64</title>
<ellipse fill="none" stroke="#000000" cx="6175" cy="-18" rx="87.9851" ry="18"/>
<text text-anchor="middle" x="6175" y="-14.3" font-family="Times,serif" font-size="14.00" fill="#000000">bsl_unordered_map.h</text>
</g>
<!-- node42&#45;&gt;node64 -->
<g id="edge79" class="edge">
<title>node42&#45;&gt;node64</title>
<path fill="none" stroke="#000000" d="M5923.4312,-78.9864C5972.715,-67.0388 6051.885,-47.8461 6108.2409,-34.184"/>
<polygon fill="#000000" stroke="#000000" points="6109.2399,-37.5433 6118.1338,-31.7857 6107.5907,-30.7403 6109.2399,-37.5433"/>
</g>
<!-- node42&#45;&gt;node71 -->
<g id="edge80" class="edge">
<title>node42&#45;&gt;node71</title>
<path fill="none" stroke="#000000" d="M5820.8953,-88.5069C5584.4571,-82.3114 4658.9437,-57.9253 3898,-36 3713.0478,-30.6709 3495.6625,-23.9574 3382.4364,-20.4266"/>
<polygon fill="#000000" stroke="#000000" points="3382.2451,-16.919 3372.1408,-20.1053 3382.0268,-23.9156 3382.2451,-16.919"/>
</g>
<!-- node77 -->
<g id="node78" class="node">
<title>node77</title>
<ellipse fill="none" stroke="#000000" cx="6339" cy="-18" rx="57.6901" ry="18"/>
<text text-anchor="middle" x="6339" y="-14.3" font-family="Times,serif" font-size="14.00" fill="#000000">bsl_cstddef.h</text>
</g>
<!-- node42&#45;&gt;node77 -->
<g id="edge84" class="edge">
<title>node42&#45;&gt;node77</title>
<path fill="none" stroke="#000000" d="M5932.8594,-84.6933C6009.3189,-76.796 6152.0459,-60.2327 6272,-36 6276.6965,-35.0512 6281.5513,-33.9627 6286.4018,-32.8007"/>
<polygon fill="#000000" stroke="#000000" points="6287.4432,-36.1483 6296.2998,-30.3336 6285.7502,-29.3561 6287.4432,-36.1483"/>
</g>
<!-- node44 -->
<g id="node45" class="node">
<title>node44</title>
<ellipse fill="none" stroke="#000000" cx="3464" cy="-378" rx="96.6831" ry="18"/>
<text text-anchor="middle" x="3464" y="-374.3" font-family="Times,serif" font-size="14.00" fill="#000000">ipcmq_queuesender.cpp</text>
</g>
<!-- node44&#45;&gt;node15 -->
<g id="edge90" class="edge">
<title>node44&#45;&gt;node15</title>
<path fill="none" stroke="#000000" d="M3531.3741,-365.0135C3544.1571,-362.989 3557.4557,-361.1799 3570,-360 4392.7456,-282.6119 4606.8694,-407.6687 5429,-324 5437.2669,-323.1587 5445.8843,-321.9897 5454.4223,-320.6476"/>
<polygon fill="#000000" stroke="#000000" points="5455.0875,-324.0853 5464.3831,-319.0017 5453.9462,-317.1789 5455.0875,-324.0853"/>
</g>
<!-- node56 -->
<g id="node57" class="node">
<title>node56</title>
<ellipse fill="none" stroke="#000000" cx="2713" cy="-234" rx="128.0773" ry="18"/>
<text text-anchor="middle" x="2713" y="-230.3" font-family="Times,serif" font-size="14.00" fill="#000000">bdlma_localsequentialallocator.h</text>
</g>
<!-- node44&#45;&gt;node56 -->
<g id="edge89" class="edge">
<title>node44&#45;&gt;node56</title>
<path fill="none" stroke="#000000" d="M3395.1472,-365.3141C3382.8086,-363.3247 3370.046,-361.4504 3358,-360 3135.4798,-333.2075 3067.8779,-394.1149 2855,-324 2812.039,-309.8501 2769.0555,-279.8514 2741.8195,-258.377"/>
<polygon fill="#000000" stroke="#000000" points="2743.8797,-255.5427 2733.89,-252.0132 2739.4983,-261.002 2743.8797,-255.5427"/>
</g>
<!-- node44&#45;&gt;node58 -->
<g id="edge91" class="edge">
<title>node44&#45;&gt;node58</title>
<path fill="none" stroke="#000000" d="M3396.6218,-365.0558C3383.8393,-363.0273 3370.5419,-361.2059 3358,-360 2680.4922,-294.8556 2505.9187,-372.271 1827,-324 1556.8955,-304.7956 1488.3279,-300.9356 1222,-252 1216.9033,-251.0635 1211.6309,-249.977 1206.3638,-248.8107"/>
<polygon fill="#000000" stroke="#000000" points="1206.8198,-245.3241 1196.2891,-246.4881 1205.2472,-252.1452 1206.8198,-245.3241"/>
</g>
<!-- node44&#45;&gt;node59 -->
<g id="edge88" class="edge">
<title>node44&#45;&gt;node59</title>
<path fill="none" stroke="#000000" d="M3531.5084,-365.0233C3568.3595,-356.3806 3614.0711,-343.0593 3652,-324 3686.5972,-306.6149 3721.2389,-278.6262 3743.9503,-258.4743"/>
<polygon fill="#000000" stroke="#000000" points="3746.3792,-260.997 3751.4664,-251.7034 3741.694,-255.7961 3746.3792,-260.997"/>
</g>
<!-- node45 -->
<g id="node46" class="node">
<title>node45</title>
<ellipse fill="none" stroke="#000000" cx="6177" cy="-162" rx="65.7887" ry="18"/>
<text text-anchor="middle" x="6177" y="-158.3" font-family="Times,serif" font-size="14.00" fill="#000000">ipcu_enum.cpp</text>
</g>
<!-- node45&#45;&gt;node42 -->
<g id="edge92" class="edge">
<title>node45&#45;&gt;node42</title>
<path fill="none" stroke="#000000" d="M6127.6262,-150.1107C6074.2232,-137.2511 5989.2741,-116.7951 5933.5701,-103.3814"/>
<polygon fill="#000000" stroke="#000000" points="5934.065,-99.9006 5923.5234,-100.9622 5932.4261,-106.7061 5934.065,-99.9006"/>
</g>
<!-- node48 -->
<g id="node49" class="node">
<title>node48</title>
<ellipse fill="none" stroke="#000000" cx="4142" cy="-450" rx="60.3893" ry="18"/>
<text text-anchor="middle" x="4142" y="-446.3" font-family="Times,serif" font-size="14.00" fill="#000000">consumer.cpp</text>
</g>
<!-- node48&#45;&gt;node19 -->
<g id="edge93" class="edge">
<title>node48&#45;&gt;node19</title>
<path fill="none" stroke="#000000" d="M4202.5612,-448.8764C4547.0155,-442.1911 6246.4731,-405.1579 6319,-324 6350.9846,-288.2091 6350.0397,-252.6134 6319,-216 6287.3904,-178.7144 6149.9356,-189.5685 6102,-180 6096.6149,-178.9251 6091.0327,-177.7466 6085.4465,-176.5232"/>
<polygon fill="#000000" stroke="#000000" points="6085.9514,-173.0498 6075.4289,-174.2852 6084.4251,-179.8814 6085.9514,-173.0498"/>
</g>
<!-- node48&#45;&gt;node20 -->
<g id="edge94" class="edge">
<title>node48&#45;&gt;node20</title>
<path fill="none" stroke="#000000" d="M4086.7356,-442.5917C3978.5167,-425.8978 3755.5996,-379.4616 3832,-288 3889.6209,-219.0199 3950.8119,-292.5991 4031,-252 4051.7558,-241.4914 4050.7664,-230.4489 4069,-216 4159.0429,-144.6469 4274.8249,-73.7572 4333.06,-39.3966"/>
<polygon fill="#000000" stroke="#000000" points="4335.0519,-42.2857 4341.8996,-34.2011 4331.5049,-36.2509 4335.0519,-42.2857"/>
</g>
<!-- node51 -->
<g id="node52" class="node">
<title>node51</title>
<ellipse fill="none" stroke="#000000" cx="4142" cy="-378" rx="79.0865" ry="18"/>
<text text-anchor="middle" x="4142" y="-374.3" font-family="Times,serif" font-size="14.00" fill="#000000">ipcmq_consumer.h</text>
</g>
<!-- node48&#45;&gt;node51 -->
<g id="edge95" class="edge">
<title>node48&#45;&gt;node51</title>
<path fill="none" stroke="#000000" d="M4142,-431.8314C4142,-424.131 4142,-414.9743 4142,-406.4166"/>
<polygon fill="#000000" stroke="#000000" points="4145.5001,-406.4132 4142,-396.4133 4138.5001,-406.4133 4145.5001,-406.4132"/>
</g>
<!-- node49 -->
<g id="node50" class="node">
<title>node49</title>
<ellipse fill="none" stroke="#000000" cx="5086" cy="-306" rx="90.1842" ry="18"/>
<text text-anchor="middle" x="5086" y="-302.3" font-family="Times,serif" font-size="14.00" fill="#000000">ipcu_operatorbool.cpp</text>
</g>
<!-- node49&#45;&gt;node24 -->
<g id="edge96" class="edge">
<title>node49&#45;&gt;node24</title>
<path fill="none" stroke="#000000" d="M5091.8039,-287.8314C5094.2908,-280.0463 5097.2531,-270.7729 5100.0125,-262.1347"/>
<polygon fill="#000000" stroke="#000000" points="5103.409,-263.0041 5103.118,-252.4133 5096.7409,-260.874 5103.409,-263.0041"/>
</g>
<!-- node50 -->
<g id="node51" class="node">
<title>node50</title>
<ellipse fill="none" stroke="#000000" cx="1924" cy="-306" rx="88.2844" ry="18"/>
<text text-anchor="middle" x="1924" y="-302.3" font-family="Times,serif" font-size="14.00" fill="#000000">ipcmq_formatutil.cpp</text>
</g>
<!-- node50&#45;&gt;node4 -->
<g id="edge97" class="edge">
<title>node50&#45;&gt;node4</title>
<path fill="none" stroke="#000000" d="M1990.4519,-294.0485C2050.4625,-283.2147 2141.1818,-266.7356 2220,-252 2226.7488,-250.7383 2233.768,-249.4149 2240.7943,-248.0826"/>
<polygon fill="#000000" stroke="#000000" points="2241.8928,-251.4366 2251.0633,-246.1306 2240.5855,-244.5597 2241.8928,-251.4366"/>
</g>
<!-- node50&#45;&gt;node7 -->
<g id="edge111" class="edge">
<title>node50&#45;&gt;node7</title>
<path fill="none" stroke="#000000" d="M1838.4184,-301.159C1730.0151,-294.2085 1537.7194,-279.1454 1375,-252 1369.345,-251.0566 1363.4849,-249.9339 1357.6416,-248.7167"/>
<polygon fill="#000000" stroke="#000000" points="1358.3777,-245.295 1347.8629,-246.5942 1356.8929,-252.1358 1358.3777,-245.295"/>
</g>
<!-- node50&#45;&gt;node8 -->
<g id="edge103" class="edge">
<title>node50&#45;&gt;node8</title>
<path fill="none" stroke="#000000" d="M1845.8979,-297.4453C1773.9451,-288.7645 1664.4939,-273.5322 1571,-252 1566.3027,-250.9182 1561.4334,-249.6487 1556.6032,-248.293"/>
<polygon fill="#000000" stroke="#000000" points="1557.3922,-244.8771 1546.8114,-245.4219 1555.4226,-251.5943 1557.3922,-244.8771"/>
</g>
<!-- node50&#45;&gt;node9 -->
<g id="edge102" class="edge">
<title>node50&#45;&gt;node9</title>
<path fill="none" stroke="#000000" d="M2012.3647,-304.8922C2502.2312,-298.7043 4874.2116,-268.1175 5200,-252 5244.4073,-249.8031 5293.7926,-245.8508 5334.3146,-242.2082"/>
<polygon fill="#000000" stroke="#000000" points="5334.7752,-245.6809 5344.4174,-241.2901 5334.1416,-238.7096 5334.7752,-245.6809"/>
</g>
<!-- node50&#45;&gt;node11 -->
<g id="edge110" class="edge">
<title>node50&#45;&gt;node11</title>
<path fill="none" stroke="#000000" d="M2009.9243,-301.5833C2167.5283,-293.0219 2491.0421,-273.1421 2538,-252 2559.2135,-242.4489 2558.2967,-231.094 2576,-216 2616.0454,-181.8569 2621.0353,-163.2832 2670,-144 2896.5575,-54.7776 3658.3287,-26.5575 3896.9202,-19.7992"/>
<polygon fill="#000000" stroke="#000000" points="3897.3123,-23.2897 3907.2107,-19.5119 3897.1169,-16.2924 3897.3123,-23.2897"/>
</g>
<!-- node50&#45;&gt;node12 -->
<g id="edge106" class="edge">
<title>node50&#45;&gt;node12</title>
<path fill="none" stroke="#000000" d="M2008.5511,-300.6588C2105.6351,-293.5822 2269.3608,-278.7539 2408,-252 2412.642,-251.1042 2417.4366,-250.0432 2422.2202,-248.8915"/>
<polygon fill="#000000" stroke="#000000" points="2423.1357,-252.2702 2431.9713,-246.4237 2421.4182,-245.4842 2423.1357,-252.2702"/>
</g>
<!-- node50&#45;&gt;node13 -->
<g id="edge107" class="edge">
<title>node50&#45;&gt;node13</title>
<path fill="none" stroke="#000000" d="M1846.3909,-297.2512C1767.4547,-287.5389 1651.0772,-270.7405 1610,-252 1587.0124,-241.5125 1589.1989,-226.0115 1566,-216 1502.387,-188.5476 1303.5381,-172.073 1205.6149,-165.4226"/>
<polygon fill="#000000" stroke="#000000" points="1205.8196,-161.9286 1195.6083,-164.7534 1205.3524,-168.913 1205.8196,-161.9286"/>
</g>
<!-- node50&#45;&gt;node25 -->
<g id="edge99" class="edge">
<title>node50&#45;&gt;node25</title>
<path fill="none" stroke="#000000" d="M1852.021,-295.506C1803.6993,-287.0756 1739.2067,-273.1098 1685,-252 1640.1016,-234.5151 1592.6531,-205.6801 1561.8231,-185.369"/>
<polygon fill="#000000" stroke="#000000" points="1563.4602,-182.254 1553.1974,-179.6224 1559.579,-188.0796 1563.4602,-182.254"/>
</g>
<!-- node50&#45;&gt;node27 -->
<g id="edge98" class="edge">
<title>node50&#45;&gt;node27</title>
<path fill="none" stroke="#000000" d="M1890.9418,-289.1192C1870.2872,-278.5722 1843.5925,-264.9409 1821.918,-253.873"/>
<polygon fill="#000000" stroke="#000000" points="1823.4663,-250.7338 1812.9685,-249.3031 1820.2828,-256.968 1823.4663,-250.7338"/>
</g>
<!-- node50&#45;&gt;node54 -->
<g id="edge105" class="edge">
<title>node50&#45;&gt;node54</title>
<path fill="none" stroke="#000000" d="M1849.8216,-296.1826C1797.6288,-287.5767 1734.2908,-273.1116 1718,-252 1670.9258,-190.9954 1703.7409,-92.478 1724.1234,-45.1229"/>
<polygon fill="#000000" stroke="#000000" points="1727.3919,-46.3863 1728.2509,-35.8263 1720.9941,-43.5458 1727.3919,-46.3863"/>
</g>
<!-- node50&#45;&gt;node56 -->
<g id="edge108" class="edge">
<title>node50&#45;&gt;node56</title>
<path fill="none" stroke="#000000" d="M2007.8606,-300.1532C2131.3262,-291.284 2369.2201,-273.1995 2571,-252 2583.6042,-250.6758 2596.8221,-249.1648 2609.9089,-247.594"/>
<polygon fill="#000000" stroke="#000000" points="2610.3736,-251.0634 2619.8786,-246.3833 2609.5296,-244.1144 2610.3736,-251.0634"/>
</g>
<!-- node63 -->
<g id="node64" class="node">
<title>node63</title>
<ellipse fill="none" stroke="#000000" cx="1924" cy="-234" rx="66.8882" ry="18"/>
<text text-anchor="middle" x="1924" y="-230.3" font-family="Times,serif" font-size="14.00" fill="#000000">bsl_algorithm.h</text>
</g>
<!-- node50&#45;&gt;node63 -->
<g id="edge100" class="edge">
<title>node50&#45;&gt;node63</title>
<path fill="none" stroke="#000000" d="M1924,-287.8314C1924,-280.131 1924,-270.9743 1924,-262.4166"/>
<polygon fill="#000000" stroke="#000000" points="1927.5001,-262.4132 1924,-252.4133 1920.5001,-262.4133 1927.5001,-262.4132"/>
</g>
<!-- node70 -->
<g id="node71" class="node">
<title>node70</title>
<ellipse fill="none" stroke="#000000" cx="2048" cy="-234" rx="38.9931" ry="18"/>
<text text-anchor="middle" x="2048" y="-230.3" font-family="Times,serif" font-size="14.00" fill="#000000">unistd.h</text>
</g>
<!-- node50&#45;&gt;node70 -->
<g id="edge101" class="edge">
<title>node50&#45;&gt;node70</title>
<path fill="none" stroke="#000000" d="M1953.3863,-288.937C1971.8106,-278.239 1995.6065,-264.422 2014.7246,-253.3212"/>
<polygon fill="#000000" stroke="#000000" points="2016.5255,-256.3228 2023.4159,-248.2746 2013.0105,-250.2693 2016.5255,-256.3228"/>
</g>
<!-- node73 -->
<g id="node74" class="node">
<title>node73</title>
<ellipse fill="none" stroke="#000000" cx="2158" cy="-234" rx="53.0913" ry="18"/>
<text text-anchor="middle" x="2158" y="-230.3" font-family="Times,serif" font-size="14.00" fill="#000000">bsl_cstdio.h</text>
</g>
<!-- node50&#45;&gt;node73 -->
<g id="edge104" class="edge">
<title>node50&#45;&gt;node73</title>
<path fill="none" stroke="#000000" d="M1973.0541,-290.9064C2012.8359,-278.6659 2068.656,-261.4905 2108.5451,-249.2169"/>
<polygon fill="#000000" stroke="#000000" points="2109.7952,-252.4942 2118.3237,-246.2081 2107.7366,-245.8038 2109.7952,-252.4942"/>
</g>
<!-- node50&#45;&gt;node78 -->
<g id="edge109" class="edge">
<title>node50&#45;&gt;node78</title>
<path fill="none" stroke="#000000" d="M1836.2253,-303.3147C1741.8588,-298.6955 1588.1279,-286.1362 1460,-252 1457.6715,-251.3796 1455.3043,-250.6531 1452.9404,-249.8543"/>
<polygon fill="#000000" stroke="#000000" points="1453.9402,-246.4911 1443.3481,-246.2505 1451.4783,-253.0439 1453.9402,-246.4911"/>
</g>
<!-- node51&#45;&gt;node18 -->
<g id="edge115" class="edge">
<title>node51&#45;&gt;node18</title>
<path fill="none" stroke="#000000" d="M4220.0199,-374.527C4304.2601,-369.2374 4441.7342,-356.1121 4556,-324 4593.9262,-313.3416 4600.028,-301.6041 4637,-288 4676.0718,-273.6233 4720.888,-260.3473 4756.3906,-250.5565"/>
<polygon fill="#000000" stroke="#000000" points="4757.4219,-253.9031 4766.1446,-247.8894 4755.5755,-247.1509 4757.4219,-253.9031"/>
</g>
<!-- node51&#45;&gt;node21 -->
<g id="edge112" class="edge">
<title>node51&#45;&gt;node21</title>
<path fill="none" stroke="#000000" d="M4093.8093,-363.6028C4053.1154,-351.4453 3994.9623,-334.0717 3953.1783,-321.5885"/>
<polygon fill="#000000" stroke="#000000" points="3954.0455,-318.1948 3943.462,-318.6858 3952.0417,-324.9019 3954.0455,-318.1948"/>
</g>
<!-- node51&#45;&gt;node38 -->
<g id="edge116" class="edge">
<title>node51&#45;&gt;node38</title>
<path fill="none" stroke="#000000" d="M4143.3932,-359.7623C4145.2694,-335.201 4148.6269,-291.2474 4150.8341,-262.3541"/>
<polygon fill="#000000" stroke="#000000" points="4154.3462,-262.3272 4151.6182,-252.0896 4147.3666,-261.794 4154.3462,-262.3272"/>
</g>
<!-- node51&#45;&gt;node60 -->
<g id="edge114" class="edge">
<title>node51&#45;&gt;node60</title>
<path fill="none" stroke="#000000" d="M4218.8138,-373.2357C4314.4965,-366.256 4471.65,-351.0489 4523,-324 4542.2038,-313.8843 4537.4574,-299.2819 4556,-288 4608.3158,-256.1695 4636.6364,-283.7518 4689,-252 4712.2638,-237.8935 4830.5995,-84.0338 4855,-72 4901.9653,-48.8378 5245.0949,-28.6152 5387.9028,-21.1079"/>
<polygon fill="#000000" stroke="#000000" points="5388.4361,-24.5849 5398.24,-20.5683 5388.0711,-17.5944 5388.4361,-24.5849"/>
</g>
<!-- node65 -->
<g id="node66" class="node">
<title>node65</title>
<ellipse fill="none" stroke="#000000" cx="4046" cy="-306" rx="67.6881" ry="18"/>
<text text-anchor="middle" x="4046" y="-302.3" font-family="Times,serif" font-size="14.00" fill="#000000">bsl_functional.h</text>
</g>
<!-- node51&#45;&gt;node65 -->
<g id="edge117" class="edge">
<title>node51&#45;&gt;node65</title>
<path fill="none" stroke="#000000" d="M4118.7611,-360.5708C4106.1698,-351.1273 4090.4482,-339.3361 4076.8438,-329.1328"/>
<polygon fill="#000000" stroke="#000000" points="4078.7937,-326.2203 4068.6937,-323.0202 4074.5937,-331.8203 4078.7937,-326.2203"/>
</g>
<!-- node51&#45;&gt;node75 -->
<g id="edge113" class="edge">
<title>node51&#45;&gt;node75</title>
<path fill="none" stroke="#000000" d="M4220.9745,-375.94C4395.2559,-370.9493 4825.8405,-356.1766 5185,-324 5202.9391,-322.3929 5222.1099,-320.2391 5240.352,-317.9809"/>
<polygon fill="#000000" stroke="#000000" points="5240.8929,-321.4406 5250.3772,-316.7185 5240.0182,-314.4954 5240.8929,-321.4406"/>
</g>
<!-- node52 -->
<g id="node53" class="node">
<title>node52</title>
<ellipse fill="none" stroke="#000000" cx="4773" cy="-378" rx="81.4863" ry="18"/>
<text text-anchor="middle" x="4773" y="-374.3" font-family="Times,serif" font-size="14.00" fill="#000000">extendedformat.cpp</text>
</g>
<!-- node52&#45;&gt;node15 -->
<g id="edge127" class="edge">
<title>node52&#45;&gt;node15</title>
<path fill="none" stroke="#000000" d="M4852.2934,-374.0726C4975.9048,-367.3652 5221.8615,-351.6721 5429,-324 5436.8452,-322.9519 5445.0188,-321.6957 5453.1466,-320.3407"/>
<polygon fill="#000000" stroke="#000000" points="5453.7496,-323.7884 5463.0128,-318.6461 5452.5647,-316.8895 5453.7496,-323.7884"/>
</g>
<!-- node52&#45;&gt;node17 -->
<g id="edge121" class="edge">
<title>node52&#45;&gt;node17</title>
<path fill="none" stroke="#000000" d="M4790.0562,-360.2022C4798.5585,-351.3303 4808.9788,-340.4569 4818.2489,-330.7837"/>
<polygon fill="#000000" stroke="#000000" points="4820.986,-332.9862 4825.3781,-323.3446 4815.9321,-328.1428 4820.986,-332.9862"/>
</g>
<!-- node52&#45;&gt;node19 -->
<g id="edge118" class="edge">
<title>node52&#45;&gt;node19</title>
<path fill="none" stroke="#000000" d="M4853.8348,-375.4145C5137.9611,-366.2344 6074.2896,-335.1603 6085,-324 6104.0735,-304.1253 6064.8826,-229.3636 6041.2216,-188.7155"/>
<polygon fill="#000000" stroke="#000000" points="6044.1051,-186.7149 6036.0099,-179.8797 6038.0757,-190.2712 6044.1051,-186.7149"/>
</g>
<!-- node52&#45;&gt;node20 -->
<g id="edge119" class="edge">
<title>node52&#45;&gt;node20</title>
<path fill="none" stroke="#000000" d="M4694.0728,-373.7042C4570.0058,-366.222 4340.5611,-349.1555 4313,-324 4282.8046,-296.4401 4294,-274.8816 4294,-234 4294,-234 4294,-234 4294,-162 4294,-116.1436 4324.5166,-70.5817 4346.875,-43.354"/>
<polygon fill="#000000" stroke="#000000" points="4349.7222,-45.4075 4353.5091,-35.5126 4344.3782,-40.8863 4349.7222,-45.4075"/>
</g>
<!-- node52&#45;&gt;node38 -->
<g id="edge126" class="edge">
<title>node52&#45;&gt;node38</title>
<path fill="none" stroke="#000000" d="M4692.0074,-376.4074C4563.5092,-372.7795 4319.5316,-361.0861 4242,-324 4212.2066,-309.7488 4186.7204,-281.211 4170.7527,-260.0733"/>
<polygon fill="#000000" stroke="#000000" points="4173.4388,-257.8171 4164.7084,-251.8145 4167.7899,-261.9513 4173.4388,-257.8171"/>
</g>
<!-- node52&#45;&gt;node41 -->
<g id="edge120" class="edge">
<title>node52&#45;&gt;node41</title>
<path fill="none" stroke="#000000" d="M4707.5238,-367.2158C4681.5545,-359.5359 4653.9046,-346.411 4637,-324 4623.8351,-306.547 4622.3273,-281.4597 4623.6912,-262.2032"/>
<polygon fill="#000000" stroke="#000000" points="4627.18,-262.4883 4624.6886,-252.1906 4620.2145,-261.7944 4627.18,-262.4883"/>
</g>
<!-- node52&#45;&gt;node54 -->
<g id="edge122" class="edge">
<title>node52&#45;&gt;node54</title>
<path fill="none" stroke="#000000" d="M4692.574,-375.2071C4402.5046,-365.0984 3423.6677,-330.6634 3357,-324 3158.5166,-304.1618 3093.8766,-338.2185 2914,-252 2849.2962,-220.9862 2859.9743,-172.2107 2794,-144 2696.2592,-102.2059 2422.6037,-120.1594 2317,-108 2125.4718,-85.9471 1900.243,-47.3321 1795.7422,-28.6813"/>
<polygon fill="#000000" stroke="#000000" points="1796.1702,-25.2023 1785.71,-26.8859 1794.9369,-32.0929 1796.1702,-25.2023"/>
</g>
<!-- node52&#45;&gt;node60 -->
<g id="edge125" class="edge">
<title>node52&#45;&gt;node60</title>
<path fill="none" stroke="#000000" d="M4849.9499,-372.2129C4961.9453,-363.149 5159.3712,-344.5072 5185,-324 5251.5313,-270.7644 5197.4949,-210.3147 5251,-144 5292.5916,-92.451 5361.2195,-55.6916 5406.0195,-35.6435"/>
<polygon fill="#000000" stroke="#000000" points="5407.4456,-38.8399 5415.1994,-31.6198 5404.6354,-32.4287 5407.4456,-38.8399"/>
</g>
<!-- node74 -->
<g id="node75" class="node">
<title>node74</title>
<ellipse fill="none" stroke="#000000" cx="4705" cy="-306" rx="59.2899" ry="18"/>
<text text-anchor="middle" x="4705" y="-302.3" font-family="Times,serif" font-size="14.00" fill="#000000">bsl_fstream.h</text>
</g>
<!-- node52&#45;&gt;node74 -->
<g id="edge124" class="edge">
<title>node52&#45;&gt;node74</title>
<path fill="none" stroke="#000000" d="M4756.191,-360.2022C4747.812,-351.3303 4737.5426,-340.4569 4728.4069,-330.7837"/>
<polygon fill="#000000" stroke="#000000" points="4730.7918,-328.2115 4721.381,-323.3446 4725.7027,-333.0179 4730.7918,-328.2115"/>
</g>
<!-- node52&#45;&gt;node75 -->
<g id="edge123" class="edge">
<title>node52&#45;&gt;node75</title>
<path fill="none" stroke="#000000" d="M4846.3635,-370.1075C4934.6832,-360.3729 5087.4344,-342.793 5218,-324 5227.2163,-322.6735 5236.8598,-321.1955 5246.4296,-319.6727"/>
<polygon fill="#000000" stroke="#000000" points="5247.0385,-323.1198 5256.3546,-318.074 5245.9253,-316.2089 5247.0385,-323.1198"/>
</g>
<!-- node58&#45;&gt;node2 -->
<g id="edge128" class="edge">
<title>node58&#45;&gt;node2</title>
<path fill="none" stroke="#000000" d="M1195.0364,-221.209C1203.9088,-219.1247 1213.197,-217.2438 1222,-216 1508.1499,-175.5694 2420.3045,-164.7328 2668.9054,-162.4981"/>
<polygon fill="#000000" stroke="#000000" points="2669.2346,-165.9954 2679.2033,-162.407 2669.1727,-158.9957 2669.2346,-165.9954"/>
</g>
<!-- node58&#45;&gt;node13 -->
<g id="edge130" class="edge">
<title>node58&#45;&gt;node13</title>
<path fill="none" stroke="#000000" d="M1150,-215.8314C1150,-208.131 1150,-198.9743 1150,-190.4166"/>
<polygon fill="#000000" stroke="#000000" points="1153.5001,-190.4132 1150,-180.4133 1146.5001,-190.4133 1153.5001,-190.4132"/>
</g>
<!-- node58&#45;&gt;node54 -->
<g id="edge129" class="edge">
<title>node58&#45;&gt;node54</title>
<path fill="none" stroke="#000000" d="M1188.9693,-219.6604C1293.1162,-181.3372 1577.6304,-76.6437 1690.2286,-35.2106"/>
<polygon fill="#000000" stroke="#000000" points="1691.768,-38.3736 1699.9441,-31.6355 1689.3506,-31.8043 1691.768,-38.3736"/>
</g>
<!-- node61 -->
<g id="node62" class="node">
<title>node61</title>
<ellipse fill="none" stroke="#000000" cx="3663" cy="-450" rx="87.1846" ry="18"/>
<text text-anchor="middle" x="3663" y="-446.3" font-family="Times,serif" font-size="14.00" fill="#000000">ipcmq_consumer.cpp</text>
</g>
<!-- node61&#45;&gt;node13 -->
<g id="edge135" class="edge">
<title>node61&#45;&gt;node13</title>
<path fill="none" stroke="#000000" d="M3575.8538,-448.5653C3040.5318,-439.3339 216.4133,-384.4431 95,-252 84.1881,-240.2059 83.9793,-227.5993 95,-216 129.6457,-179.5356 879.8525,-165.9098 1093.6173,-162.7595"/>
<polygon fill="#000000" stroke="#000000" points="1093.7348,-166.2582 1103.6828,-162.6131 1093.6329,-159.259 1093.7348,-166.2582"/>
</g>
<!-- node61&#45;&gt;node34 -->
<g id="edge134" class="edge">
<title>node61&#45;&gt;node34</title>
<path fill="none" stroke="#000000" d="M3578.9614,-445.1903C3474.5134,-438.3415 3291.0911,-423.4535 3136,-396 3130.6783,-395.058 3125.1667,-393.9326 3119.675,-392.7108"/>
<polygon fill="#000000" stroke="#000000" points="3120.3896,-389.2837 3109.8566,-390.426 3118.8031,-396.1015 3120.3896,-389.2837"/>
</g>
<!-- node61&#45;&gt;node35 -->
<g id="edge133" class="edge">
<title>node61&#45;&gt;node35</title>
<path fill="none" stroke="#000000" d="M3663,-431.8314C3663,-424.131 3663,-414.9743 3663,-406.4166"/>
<polygon fill="#000000" stroke="#000000" points="3666.5001,-406.4132 3663,-396.4133 3659.5001,-406.4133 3666.5001,-406.4132"/>
</g>
<!-- node61&#45;&gt;node51 -->
<g id="edge132" class="edge">
<title>node61&#45;&gt;node51</title>
<path fill="none" stroke="#000000" d="M3733.6781,-439.3762C3822.4737,-426.029 3974.2625,-403.2132 4065.6482,-389.4767"/>
<polygon fill="#000000" stroke="#000000" points="4066.2958,-392.9187 4075.6645,-387.9711 4065.2553,-385.9965 4066.2958,-392.9187"/>
</g>
<!-- node61&#45;&gt;node69 -->
<g id="edge131" class="edge">
<title>node61&#45;&gt;node69</title>
<path fill="none" stroke="#000000" d="M3703.327,-433.9273C3721.4318,-425.0233 3741.8531,-412.3985 3756,-396 3789.748,-356.8808 3762.1016,-324.1627 3799,-288 3818.6987,-268.6941 3845.9475,-256.176 3871.4455,-248.1113"/>
<polygon fill="#000000" stroke="#000000" points="3872.527,-251.4413 3881.1128,-245.2337 3870.5298,-244.7322 3872.527,-251.4413"/>
</g>
<!-- node68 -->
<g id="node69" class="node">
<title>node68</title>
<ellipse fill="none" stroke="#000000" cx="5995" cy="-306" rx="81.4863" ry="18"/>
<text text-anchor="middle" x="5995" y="-302.3" font-family="Times,serif" font-size="14.00" fill="#000000">ipcmq_receiver.cpp</text>
</g>
<!-- node68&#45;&gt;node14 -->
<g id="edge136" class="edge">
<title>node68&#45;&gt;node14</title>
<path fill="none" stroke="#000000" d="M5979.427,-288.2022C5971.7978,-279.4832 5962.4772,-268.8311 5954.1243,-259.2849"/>
<polygon fill="#000000" stroke="#000000" points="5956.613,-256.814 5947.3939,-251.593 5951.345,-261.4236 5956.613,-256.814"/>
</g>
<!-- node75&#45;&gt;node9 -->
<g id="edge140" class="edge">
<title>node75&#45;&gt;node9</title>
<path fill="none" stroke="#000000" d="M5348.7416,-288.2022C5360.5269,-278.9789 5375.0763,-267.5925 5387.7929,-257.6403"/>
<polygon fill="#000000" stroke="#000000" points="5390.1195,-260.264 5395.8375,-251.3446 5385.8053,-254.7514 5390.1195,-260.264"/>
</g>
<!-- node75&#45;&gt;node14 -->
<g id="edge138" class="edge">
<title>node75&#45;&gt;node14</title>
<path fill="none" stroke="#000000" d="M5393.1872,-293.3818C5405.09,-291.3971 5417.3887,-289.5069 5429,-288 5615.6714,-263.7743 5664.9303,-280.4806 5851,-252 5857.1676,-251.056 5863.5668,-249.9161 5869.9427,-248.6737"/>
<polygon fill="#000000" stroke="#000000" points="5870.8029,-252.0706 5879.9063,-246.6505 5869.4097,-245.2106 5870.8029,-252.0706"/>
</g>
<!-- node75&#45;&gt;node18 -->
<g id="edge143" class="edge">
<title>node75&#45;&gt;node18</title>
<path fill="none" stroke="#000000" d="M5250.5201,-295.2598C5156.5921,-281.8945 4996.8596,-259.1658 4900.6078,-245.4699"/>
<polygon fill="#000000" stroke="#000000" points="4901.0266,-241.9943 4890.6332,-244.0506 4900.0404,-248.9245 4901.0266,-241.9943"/>
</g>
<!-- node75&#45;&gt;node19 -->
<g id="edge137" class="edge">
<title>node75&#45;&gt;node19</title>
<path fill="none" stroke="#000000" d="M5377.5796,-290.9255C5413.841,-280.2512 5463.4608,-265.4905 5507,-252 5556.9435,-236.5251 5567.9927,-227.4927 5619,-216 5732.7032,-190.3811 5867.2476,-175.4308 5949.3301,-167.9902"/>
<polygon fill="#000000" stroke="#000000" points="5949.6726,-171.4736 5959.3217,-167.0981 5949.05,-164.5013 5949.6726,-171.4736"/>
</g>
<!-- node75&#45;&gt;node24 -->
<g id="edge139" class="edge">
<title>node75&#45;&gt;node24</title>
<path fill="none" stroke="#000000" d="M5278.9142,-290.3771C5245.1883,-279.1869 5199.658,-264.0801 5164.2172,-252.3209"/>
<polygon fill="#000000" stroke="#000000" points="5165.1003,-248.9263 5154.5068,-249.099 5162.8958,-255.5702 5165.1003,-248.9263"/>
</g>
<!-- node75&#45;&gt;node60 -->
<g id="edge142" class="edge">
<title>node75&#45;&gt;node60</title>
<path fill="none" stroke="#000000" d="M5321.7266,-287.9742C5318.2017,-268.6862 5315.6892,-237.9133 5329,-216 5345.943,-188.107 5372.0164,-204.9955 5393,-180 5395.2556,-177.3131 5425.0198,-90.967 5440.6133,-45.4603"/>
<polygon fill="#000000" stroke="#000000" points="5443.962,-46.4845 5443.8901,-35.8899 5437.3394,-44.2169 5443.962,-46.4845"/>
</g>
<!-- node75&#45;&gt;node72 -->
<g id="edge141" class="edge">
<title>node75&#45;&gt;node72</title>
<path fill="none" stroke="#000000" d="M5312.9578,-288.0027C5306.4786,-277.9451 5299.3358,-264.8733 5296,-252 5291.9865,-236.5115 5292.4403,-231.599 5296,-216 5298.1193,-206.7132 5302.0477,-197.1628 5306.2204,-188.725"/>
<polygon fill="#000000" stroke="#000000" points="5309.3871,-190.2231 5310.9519,-179.7445 5303.1941,-186.9603 5309.3871,-190.2231"/>
</g>
<!-- node76 -->
<g id="node77" class="node">
<title>node76</title>
<ellipse fill="none" stroke="#000000" cx="5745" cy="-306" rx="75.2868" ry="18"/>
<text text-anchor="middle" x="5745" y="-302.3" font-family="Times,serif" font-size="14.00" fill="#000000">ipcmq_sender.cpp</text>
</g>
<!-- node76&#45;&gt;node32 -->
<g id="edge144" class="edge">
<title>node76&#45;&gt;node32</title>
<path fill="none" stroke="#000000" d="M5752.3179,-287.8314C5755.5364,-279.8406 5759.3865,-270.2819 5762.9432,-261.4514"/>
<polygon fill="#000000" stroke="#000000" points="5766.2953,-262.4969 5766.7849,-251.9134 5759.8022,-259.8816 5766.2953,-262.4969"/>
</g>
</g>
</svg>
